<svg width="101" height="101" viewBox="0 0 101 101" fill="none" xmlns="http://www.w3.org/2000/svg">
<g clip-path="url(#clip0_787_2926)">
<path d="M79.8105 9.80469C78.6566 9.80469 77.5582 10.3326 76.6351 11.2643L74.4259 13.3978L87.4043 26.4971L89.5213 24.2673C91.3674 22.404 91.3674 19.6276 89.5213 17.7643L83.0782 11.2612C82.1551 10.3295 80.9643 9.80469 79.8105 9.80469ZM72.309 15.2425L68.9428 18.0593L82.789 32.0343L85.8659 28.9288L72.309 15.2425ZM67.1151 20.2891L39.3305 48.0466C39.1898 48.1638 39.0601 48.2938 38.9428 48.4348L38.752 48.5311C38.4164 48.9193 38.1845 49.3874 38.0782 49.8913L34.3274 63.1862C34.1667 63.7125 34.1511 64.273 34.2825 64.8074C34.4138 65.3419 34.6871 65.8301 35.0729 66.2195C35.4587 66.6089 35.9424 66.8847 36.4719 67.0173C37.0015 67.1499 37.5568 67.1342 38.0782 66.9719L51.2505 63.1862C51.6879 63.0815 52.0963 62.879 52.4457 62.5936C52.795 62.3081 53.0764 61.9471 53.269 61.5372L80.5797 34.2641L75.3859 28.6337V28.9256L71.7305 25.2362H72.0197L67.1151 20.2891ZM13.272 22.4226C12.5592 22.5594 11.9172 22.9461 11.4595 23.5144C11.0017 24.0827 10.7577 24.7959 10.7705 25.5282V87.6395C10.7705 88.4631 11.0947 89.253 11.6717 89.8354C12.2487 90.4178 13.0314 90.745 13.8474 90.745H75.3859C76.2019 90.745 76.9846 90.4178 77.5616 89.8354C78.1386 89.253 78.4628 88.4631 78.4628 87.6395V53.4782C78.4628 52.6546 78.1386 51.8647 77.5616 51.2823C76.9846 50.6999 76.2019 50.3727 75.3859 50.3727C74.5698 50.3727 73.7872 50.6999 73.2102 51.2823C72.6331 51.8647 72.309 52.6546 72.309 53.4782V84.5339H16.9243V28.6337H47.6936C48.5096 28.6337 49.2923 28.3065 49.8693 27.7241C50.4463 27.1417 50.7705 26.3518 50.7705 25.5282C50.7705 24.7045 50.4463 23.9146 49.8693 23.3322C49.2923 22.7498 48.5096 22.4226 47.6936 22.4226H13.8474C13.7511 22.418 13.6545 22.418 13.5582 22.4226C13.4618 22.418 13.3653 22.418 13.269 22.4226H13.272ZM43.4659 52.8975L47.6967 53.1863L47.9859 57.8447L43.7551 59.1055L42.1213 57.4596L43.4659 52.8975Z" fill="black"/>
</g>
<defs>
<clipPath id="clip0_787_2926">
<rect width="80" height="80.7447" fill="white" transform="translate(10.7705 10)"/>
</clipPath>
</defs>
</svg>
