<svg width="101" height="101" viewBox="0 0 101 101" fill="none" xmlns="http://www.w3.org/2000/svg">
<g clip-path="url(#clip0_787_2904)">
<path d="M70.2296 43.6436H53.5629V36.9149L63.5629 36.8813C66.2093 36.8813 68.7478 35.8225 70.6223 33.937C72.4967 32.0514 73.5541 29.4928 73.5629 26.8218V20.0931C73.555 17.4187 72.4989 14.8561 70.6253 12.965C68.7516 11.0739 66.2127 10.008 63.5629 10H36.8963C34.2465 10.008 31.7076 11.0739 29.834 12.965C27.9603 14.8561 26.9042 17.4187 26.8963 20.0931V26.8218C26.9042 29.4962 27.9603 32.0588 29.834 33.9499C31.7076 35.841 34.2465 36.9069 36.8963 36.9149H46.8963V43.6436H30.2296C27.5799 43.6516 25.0409 44.7175 23.1673 46.6086C21.2936 48.4997 20.2375 51.0623 20.2296 53.7367V80.6516C20.2375 83.326 21.2936 85.8886 23.1673 87.7797C25.0409 89.6708 27.5799 90.7367 30.2296 90.7447H70.2296C72.8793 90.7367 75.4183 89.6708 77.2919 87.7797C79.1656 85.8886 80.2217 83.326 80.2296 80.6516V53.7367C80.2217 51.0623 79.1656 48.4997 77.2919 46.6086C75.4183 44.7175 72.8793 43.6516 70.2296 43.6436ZM36.8963 30.1862C36.013 30.1835 35.1667 29.8282 34.5422 29.1978C33.9176 28.5675 33.5656 27.7133 33.5629 26.8218V20.0931C33.5656 19.2016 33.9176 18.3474 34.5422 17.7171C35.1667 17.0867 36.013 16.7314 36.8963 16.7287H63.5296C64.4162 16.7304 65.2665 17.0844 65.8966 17.714C66.5266 18.3436 66.8858 19.1983 66.8963 20.0931V26.8218C66.8858 27.7166 66.5266 28.5713 65.8966 29.2009C65.2665 29.8305 64.4162 30.1845 63.5296 30.1862H36.8963ZM51.6796 77.5295L50.2296 78.9694L48.7796 77.516C43.6296 72.3786 40.2296 68.9907 40.2296 64.8324C40.1911 64.0692 40.3035 63.306 40.5601 62.5871C40.8167 61.8683 41.2125 61.2081 41.7243 60.6451C42.2362 60.0822 42.854 59.6276 43.5416 59.3079C44.2292 58.9883 44.973 58.8099 45.7296 58.7832C46.6027 58.7996 47.4608 59.0148 48.24 59.4127C49.0192 59.8106 49.6993 60.3809 50.2296 61.0811C50.7599 60.3809 51.44 59.8106 52.2192 59.4127C52.9984 59.0148 53.8565 58.7996 54.7296 58.7832C55.4862 58.8099 56.23 58.9883 56.9176 59.3079C57.6053 59.6276 58.223 60.0822 58.7349 60.6451C59.2468 61.2081 59.6425 61.8683 59.8992 62.5871C60.1558 63.306 60.2681 64.0692 60.2296 64.8324C60.2296 68.9907 56.8296 72.3786 51.6796 77.5295Z" fill="black"/>
<path d="M46.8962 23.457H53.5629V26.8214H46.8962V23.457Z" fill="black"/>
<path d="M40.2296 26.8215C42.0705 26.8215 43.5629 25.3152 43.5629 23.4571C43.5629 21.599 42.0705 20.0928 40.2296 20.0928C38.3886 20.0928 36.8962 21.599 36.8962 23.4571C36.8962 25.3152 38.3886 26.8215 40.2296 26.8215Z" fill="black"/>
<path d="M60.2296 26.8215C62.0705 26.8215 63.5629 25.3152 63.5629 23.4571C63.5629 21.599 62.0705 20.0928 60.2296 20.0928C58.3886 20.0928 56.8962 21.599 56.8962 23.4571C56.8962 25.3152 58.3886 26.8215 60.2296 26.8215Z" fill="black"/>
</g>
<defs>
<clipPath id="clip0_787_2904">
<rect width="80" height="80.7447" fill="white" transform="translate(10.2296 10)"/>
</clipPath>
</defs>
</svg>
