<svg width="101" height="101" viewBox="0 0 101 101" fill="none" xmlns="http://www.w3.org/2000/svg">
<path d="M45.7705 16.7285C51.0904 16.7282 56.3029 18.2395 60.8115 21.0895C65.3201 23.9395 68.9427 28.0131 71.2646 32.8441C73.5865 37.6751 74.514 43.0683 73.9408 48.4064C73.3677 53.7446 71.3172 58.812 68.0238 63.0289L80.1972 75.3155C80.8044 75.95 81.1403 76.7999 81.1327 77.682C81.1251 78.5641 80.7746 79.408 80.1566 80.0317C79.5385 80.6555 78.7025 81.0093 77.8285 81.017C76.9545 81.0247 76.1125 80.6856 75.4838 80.0727L63.3105 67.7861C59.762 70.6086 55.5962 72.5338 51.1606 73.4009C46.725 74.268 42.1482 74.0519 37.8122 72.7707C33.4762 71.4895 29.5066 69.1802 26.2346 66.0357C22.9627 62.8911 20.4832 59.0024 19.0031 54.6939C17.523 50.3855 17.0852 45.7823 17.7262 41.2683C18.3672 36.7544 20.0684 32.4606 22.688 28.7452C25.3075 25.0298 28.7693 22.0005 32.7847 19.9102C36.8 17.8198 41.2525 16.7289 45.7705 16.7285ZM45.7705 23.4572C40.0241 23.4572 34.5131 25.7612 30.4499 29.8623C26.3866 33.9634 24.1038 39.5257 24.1038 45.3256C24.1038 51.1254 26.3866 56.6877 30.4499 60.7888C34.5131 64.89 40.0241 67.1939 45.7705 67.1939C51.5169 67.1939 57.0279 64.89 61.0911 60.7888C65.1544 56.6877 67.4372 51.1254 67.4372 45.3256C67.4372 39.5257 65.1544 33.9634 61.0911 29.8623C57.0279 25.7612 51.5169 23.4572 45.7705 23.4572ZM45.7705 26.8216C50.6328 26.8216 55.296 28.7711 58.7341 32.2413C62.1723 35.7115 64.1038 40.418 64.1038 45.3256C64.1038 50.2332 62.1723 54.9397 58.7341 58.4099C55.296 61.8801 50.6328 63.8296 45.7705 63.8296C40.9082 63.8296 36.245 61.8801 32.8069 58.4099C29.3687 54.9397 27.4372 50.2332 27.4372 45.3256C27.4372 40.418 29.3687 35.7115 32.8069 32.2413C36.245 28.7711 40.9082 26.8216 45.7705 26.8216Z" fill="black"/>
</svg>
