<svg width="501" height="468" viewBox="0 0 501 468" fill="none" xmlns="http://www.w3.org/2000/svg">
<g filter="url(#filter0_d_578_2044)">
<ellipse opacity="0.44" cx="31.0882" cy="31.1449" rx="6.08824" ry="6.14491" fill="#614BC3"/>
<ellipse opacity="0.36" cx="31.0882" cy="68.0141" rx="6.08824" ry="6.14491" fill="#614BC3"/>
<ellipse opacity="0.28" cx="31.0882" cy="104.884" rx="6.08824" ry="6.14491" fill="#614BC3"/>
<ellipse opacity="0.2" cx="31.0882" cy="141.753" rx="6.08824" ry="6.14491" fill="#614BC3"/>
<ellipse opacity="0.12" cx="31.0882" cy="178.622" rx="6.08824" ry="6.14491" fill="#614BC3"/>
<ellipse opacity="0.04" cx="31.0882" cy="215.493" rx="6.08824" ry="6.14491" fill="#614BC3"/>
<ellipse opacity="0.52" cx="67.6175" cy="31.1449" rx="6.08824" ry="6.14491" fill="#614BC3"/>
<ellipse opacity="0.44" cx="67.6175" cy="68.0141" rx="6.08824" ry="6.14491" fill="#614BC3"/>
<ellipse opacity="0.36" cx="67.6175" cy="104.884" rx="6.08824" ry="6.14491" fill="#614BC3"/>
<ellipse opacity="0.28" cx="67.6175" cy="141.753" rx="6.08824" ry="6.14491" fill="#614BC3"/>
<ellipse opacity="0.2" cx="67.6175" cy="178.622" rx="6.08824" ry="6.14491" fill="#614BC3"/>
<ellipse opacity="0.12" cx="67.6175" cy="215.493" rx="6.08824" ry="6.14491" fill="#614BC3"/>
<ellipse opacity="0.04" cx="67.6175" cy="252.362" rx="6.08824" ry="6.14491" fill="#614BC3"/>
<ellipse opacity="0.6" cx="104.147" cy="31.1449" rx="6.08824" ry="6.14491" fill="#614BC3"/>
<ellipse opacity="0.52" cx="104.147" cy="68.0141" rx="6.08824" ry="6.14491" fill="#614BC3"/>
<ellipse opacity="0.44" cx="104.147" cy="104.884" rx="6.08824" ry="6.14491" fill="#614BC3"/>
<ellipse opacity="0.36" cx="104.147" cy="141.753" rx="6.08824" ry="6.14491" fill="#614BC3"/>
<ellipse opacity="0.28" cx="104.147" cy="178.622" rx="6.08824" ry="6.14491" fill="#614BC3"/>
<ellipse opacity="0.2" cx="104.147" cy="215.493" rx="6.08824" ry="6.14491" fill="#614BC3"/>
<ellipse opacity="0.12" cx="104.147" cy="252.362" rx="6.08824" ry="6.14491" fill="#614BC3"/>
<ellipse opacity="0.04" cx="104.147" cy="289.231" rx="6.08824" ry="6.14491" fill="#614BC3"/>
<ellipse opacity="0.68" cx="140.676" cy="31.1449" rx="6.08824" ry="6.14491" fill="#614BC3"/>
<ellipse opacity="0.6" cx="140.676" cy="68.0141" rx="6.08824" ry="6.14491" fill="#614BC3"/>
<ellipse opacity="0.52" cx="140.676" cy="104.884" rx="6.08824" ry="6.14491" fill="#614BC3"/>
<ellipse opacity="0.44" cx="140.676" cy="141.753" rx="6.08824" ry="6.14491" fill="#614BC3"/>
<ellipse opacity="0.36" cx="140.676" cy="178.622" rx="6.08824" ry="6.14491" fill="#614BC3"/>
<ellipse opacity="0.28" cx="140.676" cy="215.493" rx="6.08824" ry="6.14491" fill="#614BC3"/>
<ellipse opacity="0.2" cx="140.676" cy="252.362" rx="6.08824" ry="6.14491" fill="#614BC3"/>
<ellipse opacity="0.12" cx="140.676" cy="289.231" rx="6.08824" ry="6.14491" fill="#614BC3"/>
<ellipse opacity="0.04" cx="140.676" cy="326.1" rx="6.08824" ry="6.14491" fill="#614BC3"/>
<ellipse opacity="0.76" cx="177.206" cy="31.1449" rx="6.08823" ry="6.14491" fill="#614BC3"/>
<ellipse opacity="0.68" cx="177.206" cy="68.0141" rx="6.08823" ry="6.14491" fill="#614BC3"/>
<ellipse opacity="0.6" cx="177.206" cy="104.884" rx="6.08823" ry="6.14491" fill="#614BC3"/>
<ellipse opacity="0.52" cx="177.206" cy="141.753" rx="6.08823" ry="6.14491" fill="#614BC3"/>
<ellipse opacity="0.44" cx="177.206" cy="178.622" rx="6.08823" ry="6.14491" fill="#614BC3"/>
<ellipse opacity="0.36" cx="177.206" cy="215.493" rx="6.08823" ry="6.14491" fill="#614BC3"/>
<ellipse opacity="0.28" cx="177.206" cy="252.362" rx="6.08823" ry="6.14491" fill="#614BC3"/>
<ellipse opacity="0.2" cx="177.206" cy="289.231" rx="6.08823" ry="6.14491" fill="#614BC3"/>
<ellipse opacity="0.12" cx="177.206" cy="326.1" rx="6.08823" ry="6.14491" fill="#614BC3"/>
<ellipse opacity="0.04" cx="177.206" cy="362.97" rx="6.08823" ry="6.14491" fill="#614BC3"/>
<ellipse opacity="0.84" cx="213.735" cy="31.1449" rx="6.08823" ry="6.14491" fill="#614BC3"/>
<ellipse opacity="0.76" cx="213.735" cy="68.0141" rx="6.08823" ry="6.14491" fill="#614BC3"/>
<ellipse opacity="0.68" cx="213.735" cy="104.884" rx="6.08823" ry="6.14491" fill="#614BC3"/>
<ellipse opacity="0.6" cx="213.735" cy="141.753" rx="6.08823" ry="6.14491" fill="#614BC3"/>
<ellipse opacity="0.52" cx="213.735" cy="178.622" rx="6.08823" ry="6.14491" fill="#614BC3"/>
<ellipse opacity="0.44" cx="213.735" cy="215.493" rx="6.08823" ry="6.14491" fill="#614BC3"/>
<ellipse opacity="0.36" cx="213.735" cy="252.362" rx="6.08823" ry="6.14491" fill="#614BC3"/>
<ellipse opacity="0.28" cx="213.735" cy="289.231" rx="6.08823" ry="6.14491" fill="#614BC3"/>
<ellipse opacity="0.2" cx="213.735" cy="326.1" rx="6.08823" ry="6.14491" fill="#614BC3"/>
<ellipse opacity="0.12" cx="213.735" cy="362.97" rx="6.08823" ry="6.14491" fill="#614BC3"/>
<ellipse opacity="0.04" cx="213.735" cy="399.839" rx="6.08823" ry="6.14491" fill="#614BC3"/>
<ellipse opacity="0.92" cx="250.265" cy="31.1449" rx="6.08824" ry="6.14491" fill="#614BC3"/>
<ellipse opacity="0.84" cx="250.265" cy="68.0141" rx="6.08824" ry="6.14491" fill="#614BC3"/>
<ellipse opacity="0.76" cx="250.265" cy="104.884" rx="6.08824" ry="6.14491" fill="#614BC3"/>
<ellipse opacity="0.68" cx="250.265" cy="141.753" rx="6.08824" ry="6.14491" fill="#614BC3"/>
<ellipse opacity="0.6" cx="250.265" cy="178.622" rx="6.08824" ry="6.14491" fill="#614BC3"/>
<ellipse opacity="0.52" cx="250.265" cy="215.493" rx="6.08824" ry="6.14491" fill="#614BC3"/>
<ellipse opacity="0.44" cx="250.265" cy="252.362" rx="6.08824" ry="6.14491" fill="#614BC3"/>
<ellipse opacity="0.36" cx="250.265" cy="289.231" rx="6.08824" ry="6.14491" fill="#614BC3"/>
<ellipse opacity="0.28" cx="250.265" cy="326.1" rx="6.08824" ry="6.14491" fill="#614BC3"/>
<ellipse opacity="0.2" cx="250.265" cy="362.97" rx="6.08824" ry="6.14491" fill="#614BC3"/>
<ellipse opacity="0.12" cx="250.265" cy="399.839" rx="6.08824" ry="6.14491" fill="#614BC3"/>
<ellipse opacity="0.04" cx="250.265" cy="436.708" rx="6.08824" ry="6.14491" fill="#614BC3"/>
<ellipse cx="286.794" cy="31.1449" rx="6.08823" ry="6.14491" fill="#614BC3"/>
<ellipse cx="323.324" cy="31.1449" rx="6.08824" ry="6.14491" fill="#614BC3"/>
<ellipse cx="359.853" cy="31.1449" rx="6.08824" ry="6.14491" fill="#614BC3"/>
<ellipse cx="396.382" cy="31.1449" rx="6.08823" ry="6.14491" fill="#614BC3"/>
<ellipse cx="432.912" cy="31.1449" rx="6.08823" ry="6.14491" fill="#614BC3"/>
<ellipse cx="469.441" cy="31.1449" rx="6.08824" ry="6.14491" fill="#614BC3"/>
<ellipse opacity="0.92" cx="286.794" cy="68.0141" rx="6.08823" ry="6.14491" fill="#614BC3"/>
<ellipse cx="323.324" cy="68.0141" rx="6.08824" ry="6.14491" fill="#614BC3"/>
<ellipse cx="359.853" cy="68.0141" rx="6.08824" ry="6.14491" fill="#614BC3"/>
<ellipse cx="396.382" cy="68.0141" rx="6.08823" ry="6.14491" fill="#614BC3"/>
<ellipse cx="432.912" cy="68.0141" rx="6.08823" ry="6.14491" fill="#614BC3"/>
<ellipse cx="469.441" cy="68.0141" rx="6.08824" ry="6.14491" fill="#614BC3"/>
<ellipse opacity="0.84" cx="286.794" cy="104.884" rx="6.08823" ry="6.14491" fill="#614BC3"/>
<ellipse opacity="0.92" cx="323.324" cy="104.884" rx="6.08824" ry="6.14491" fill="#614BC3"/>
<ellipse cx="359.853" cy="104.884" rx="6.08824" ry="6.14491" fill="#614BC3"/>
<ellipse cx="396.382" cy="104.884" rx="6.08823" ry="6.14491" fill="#614BC3"/>
<ellipse cx="432.912" cy="104.884" rx="6.08823" ry="6.14491" fill="#614BC3"/>
<ellipse cx="469.441" cy="104.884" rx="6.08824" ry="6.14491" fill="#614BC3"/>
<ellipse opacity="0.76" cx="286.794" cy="141.753" rx="6.08823" ry="6.14491" fill="#614BC3"/>
<ellipse opacity="0.84" cx="323.324" cy="141.753" rx="6.08824" ry="6.14491" fill="#614BC3"/>
<ellipse opacity="0.92" cx="359.853" cy="141.753" rx="6.08824" ry="6.14491" fill="#614BC3"/>
<ellipse cx="396.382" cy="141.753" rx="6.08823" ry="6.14491" fill="#614BC3"/>
<ellipse cx="432.912" cy="141.753" rx="6.08823" ry="6.14491" fill="#614BC3"/>
<ellipse cx="469.441" cy="141.753" rx="6.08824" ry="6.14491" fill="#614BC3"/>
<ellipse opacity="0.68" cx="286.794" cy="178.622" rx="6.08823" ry="6.14491" fill="#614BC3"/>
<ellipse opacity="0.76" cx="323.324" cy="178.622" rx="6.08824" ry="6.14491" fill="#614BC3"/>
<ellipse opacity="0.84" cx="359.853" cy="178.622" rx="6.08824" ry="6.14491" fill="#614BC3"/>
<ellipse opacity="0.92" cx="396.382" cy="178.622" rx="6.08823" ry="6.14491" fill="#614BC3"/>
<ellipse cx="432.912" cy="178.622" rx="6.08823" ry="6.14491" fill="#614BC3"/>
<ellipse cx="469.441" cy="178.622" rx="6.08824" ry="6.14491" fill="#614BC3"/>
<ellipse opacity="0.6" cx="286.794" cy="215.493" rx="6.08823" ry="6.14491" fill="#614BC3"/>
<ellipse opacity="0.68" cx="323.324" cy="215.493" rx="6.08824" ry="6.14491" fill="#614BC3"/>
<ellipse opacity="0.76" cx="359.853" cy="215.493" rx="6.08824" ry="6.14491" fill="#614BC3"/>
<ellipse opacity="0.84" cx="396.382" cy="215.493" rx="6.08823" ry="6.14491" fill="#614BC3"/>
<ellipse opacity="0.92" cx="432.912" cy="215.493" rx="6.08823" ry="6.14491" fill="#614BC3"/>
<ellipse cx="469.441" cy="215.493" rx="6.08824" ry="6.14491" fill="#614BC3"/>
<ellipse opacity="0.52" cx="286.794" cy="252.362" rx="6.08823" ry="6.14491" fill="#614BC3"/>
<ellipse opacity="0.6" cx="323.324" cy="252.362" rx="6.08824" ry="6.14491" fill="#614BC3"/>
<ellipse opacity="0.68" cx="359.853" cy="252.362" rx="6.08824" ry="6.14491" fill="#614BC3"/>
<ellipse opacity="0.76" cx="396.382" cy="252.362" rx="6.08823" ry="6.14491" fill="#614BC3"/>
<ellipse opacity="0.84" cx="432.912" cy="252.362" rx="6.08823" ry="6.14491" fill="#614BC3"/>
<ellipse opacity="0.92" cx="469.441" cy="252.362" rx="6.08824" ry="6.14491" fill="#614BC3"/>
<ellipse opacity="0.44" cx="286.794" cy="289.231" rx="6.08823" ry="6.14491" fill="#614BC3"/>
<ellipse opacity="0.52" cx="323.324" cy="289.231" rx="6.08824" ry="6.14491" fill="#614BC3"/>
<ellipse opacity="0.6" cx="359.853" cy="289.231" rx="6.08824" ry="6.14491" fill="#614BC3"/>
<ellipse opacity="0.68" cx="396.382" cy="289.231" rx="6.08823" ry="6.14491" fill="#614BC3"/>
<ellipse opacity="0.76" cx="432.912" cy="289.231" rx="6.08823" ry="6.14491" fill="#614BC3"/>
<ellipse opacity="0.84" cx="469.441" cy="289.231" rx="6.08824" ry="6.14491" fill="#614BC3"/>
<ellipse opacity="0.36" cx="286.794" cy="326.1" rx="6.08823" ry="6.14491" fill="#614BC3"/>
<ellipse opacity="0.44" cx="323.324" cy="326.1" rx="6.08824" ry="6.14491" fill="#614BC3"/>
<ellipse opacity="0.52" cx="359.853" cy="326.1" rx="6.08824" ry="6.14491" fill="#614BC3"/>
<ellipse opacity="0.6" cx="396.382" cy="326.1" rx="6.08823" ry="6.14491" fill="#614BC3"/>
<ellipse opacity="0.68" cx="432.912" cy="326.1" rx="6.08823" ry="6.14491" fill="#614BC3"/>
<ellipse opacity="0.76" cx="469.441" cy="326.1" rx="6.08824" ry="6.14491" fill="#614BC3"/>
<ellipse opacity="0.28" cx="286.794" cy="362.97" rx="6.08823" ry="6.14491" fill="#614BC3"/>
<ellipse opacity="0.36" cx="323.324" cy="362.97" rx="6.08824" ry="6.14491" fill="#614BC3"/>
<ellipse opacity="0.44" cx="359.853" cy="362.97" rx="6.08824" ry="6.14491" fill="#614BC3"/>
<ellipse opacity="0.52" cx="396.382" cy="362.97" rx="6.08823" ry="6.14491" fill="#614BC3"/>
<ellipse opacity="0.6" cx="432.912" cy="362.97" rx="6.08823" ry="6.14491" fill="#614BC3"/>
<ellipse opacity="0.68" cx="469.441" cy="362.97" rx="6.08824" ry="6.14491" fill="#614BC3"/>
<ellipse opacity="0.2" cx="286.794" cy="399.839" rx="6.08823" ry="6.14491" fill="#614BC3"/>
<ellipse opacity="0.28" cx="323.324" cy="399.839" rx="6.08824" ry="6.14491" fill="#614BC3"/>
<ellipse opacity="0.36" cx="359.853" cy="399.839" rx="6.08824" ry="6.14491" fill="#614BC3"/>
<ellipse opacity="0.44" cx="396.382" cy="399.839" rx="6.08823" ry="6.14491" fill="#614BC3"/>
<ellipse opacity="0.52" cx="432.912" cy="399.839" rx="6.08823" ry="6.14491" fill="#614BC3"/>
<ellipse opacity="0.6" cx="469.441" cy="399.839" rx="6.08824" ry="6.14491" fill="#614BC3"/>
<ellipse opacity="0.12" cx="286.794" cy="436.708" rx="6.08823" ry="6.14491" fill="#614BC3"/>
<ellipse opacity="0.2" cx="323.324" cy="436.708" rx="6.08824" ry="6.14491" fill="#614BC3"/>
<ellipse opacity="0.28" cx="359.853" cy="436.708" rx="6.08824" ry="6.14491" fill="#614BC3"/>
<ellipse opacity="0.36" cx="396.382" cy="436.708" rx="6.08823" ry="6.14491" fill="#614BC3"/>
<ellipse opacity="0.44" cx="432.912" cy="436.708" rx="6.08823" ry="6.14491" fill="#614BC3"/>
<ellipse opacity="0.52" cx="469.441" cy="436.708" rx="6.08824" ry="6.14491" fill="#614BC3"/>
</g>
<defs>
<filter id="filter0_d_578_2044" x="0" y="0" width="500.53" height="467.854" filterUnits="userSpaceOnUse" color-interpolation-filters="sRGB">
<feFlood flood-opacity="0" result="BackgroundImageFix"/>
<feColorMatrix in="SourceAlpha" type="matrix" values="0 0 0 0 0 0 0 0 0 0 0 0 0 0 0 0 0 0 127 0" result="hardAlpha"/>
<feOffset/>
<feGaussianBlur stdDeviation="12.5"/>
<feComposite in2="hardAlpha" operator="out"/>
<feColorMatrix type="matrix" values="0 0 0 0 0 0 0 0 0 0 0 0 0 0 0 0 0 0 0.25 0"/>
<feBlend mode="normal" in2="BackgroundImageFix" result="effect1_dropShadow_578_2044"/>
<feBlend mode="normal" in="SourceGraphic" in2="effect1_dropShadow_578_2044" result="shape"/>
</filter>
</defs>
</svg>
