<svg width="547" height="490" viewBox="0 0 547 490" fill="none" xmlns="http://www.w3.org/2000/svg">
<g filter="url(#filter0_d_578_2036)">
<ellipse opacity="0.44" cx="514.221" cy="476.349" rx="7.04412" ry="7.10969" transform="rotate(180 514.221 476.349)" fill="#614BC3"/>
<ellipse opacity="0.36" cx="514.221" cy="433.691" rx="7.04412" ry="7.10969" transform="rotate(180 514.221 433.691)" fill="#614BC3"/>
<ellipse opacity="0.28" cx="514.221" cy="391.033" rx="7.04412" ry="7.10969" transform="rotate(180 514.221 391.033)" fill="#614BC3"/>
<ellipse opacity="0.2" cx="514.221" cy="348.375" rx="7.04412" ry="7.10969" transform="rotate(180 514.221 348.375)" fill="#614BC3"/>
<ellipse opacity="0.12" cx="514.221" cy="305.716" rx="7.04412" ry="7.10969" transform="rotate(180 514.221 305.716)" fill="#614BC3"/>
<ellipse opacity="0.04" cx="514.221" cy="263.058" rx="7.04412" ry="7.10969" transform="rotate(180 514.221 263.058)" fill="#614BC3"/>
<ellipse opacity="0.52" cx="471.956" cy="476.349" rx="7.04412" ry="7.10969" transform="rotate(180 471.956 476.349)" fill="#614BC3"/>
<ellipse opacity="0.44" cx="471.956" cy="433.691" rx="7.04412" ry="7.10969" transform="rotate(180 471.956 433.691)" fill="#614BC3"/>
<ellipse opacity="0.36" cx="471.956" cy="391.033" rx="7.04412" ry="7.10969" transform="rotate(180 471.956 391.033)" fill="#614BC3"/>
<ellipse opacity="0.28" cx="471.956" cy="348.375" rx="7.04412" ry="7.10969" transform="rotate(180 471.956 348.375)" fill="#614BC3"/>
<ellipse opacity="0.2" cx="471.956" cy="305.716" rx="7.04412" ry="7.10969" transform="rotate(180 471.956 305.716)" fill="#614BC3"/>
<ellipse opacity="0.12" cx="471.956" cy="263.058" rx="7.04412" ry="7.10969" transform="rotate(180 471.956 263.058)" fill="#614BC3"/>
<ellipse opacity="0.04" cx="471.956" cy="220.4" rx="7.04412" ry="7.1097" transform="rotate(180 471.956 220.4)" fill="#614BC3"/>
<ellipse opacity="0.6" cx="429.691" cy="476.349" rx="7.04412" ry="7.10969" transform="rotate(180 429.691 476.349)" fill="#614BC3"/>
<ellipse opacity="0.52" cx="429.691" cy="433.691" rx="7.04412" ry="7.10969" transform="rotate(180 429.691 433.691)" fill="#614BC3"/>
<ellipse opacity="0.44" cx="429.691" cy="391.033" rx="7.04412" ry="7.10969" transform="rotate(180 429.691 391.033)" fill="#614BC3"/>
<ellipse opacity="0.36" cx="429.691" cy="348.375" rx="7.04412" ry="7.10969" transform="rotate(180 429.691 348.375)" fill="#614BC3"/>
<ellipse opacity="0.28" cx="429.691" cy="305.716" rx="7.04412" ry="7.10969" transform="rotate(180 429.691 305.716)" fill="#614BC3"/>
<ellipse opacity="0.2" cx="429.691" cy="263.058" rx="7.04412" ry="7.10969" transform="rotate(180 429.691 263.058)" fill="#614BC3"/>
<ellipse opacity="0.12" cx="429.691" cy="220.4" rx="7.04412" ry="7.1097" transform="rotate(180 429.691 220.4)" fill="#614BC3"/>
<ellipse opacity="0.04" cx="429.691" cy="177.743" rx="7.04412" ry="7.1097" transform="rotate(180 429.691 177.743)" fill="#614BC3"/>
<ellipse opacity="0.68" cx="387.427" cy="476.349" rx="7.04412" ry="7.10969" transform="rotate(180 387.427 476.349)" fill="#614BC3"/>
<ellipse opacity="0.6" cx="387.427" cy="433.691" rx="7.04412" ry="7.10969" transform="rotate(180 387.427 433.691)" fill="#614BC3"/>
<ellipse opacity="0.52" cx="387.427" cy="391.033" rx="7.04412" ry="7.10969" transform="rotate(180 387.427 391.033)" fill="#614BC3"/>
<ellipse opacity="0.44" cx="387.426" cy="348.375" rx="7.04412" ry="7.10969" transform="rotate(180 387.426 348.375)" fill="#614BC3"/>
<ellipse opacity="0.36" cx="387.426" cy="305.716" rx="7.04412" ry="7.10969" transform="rotate(180 387.426 305.716)" fill="#614BC3"/>
<ellipse opacity="0.28" cx="387.426" cy="263.058" rx="7.04412" ry="7.10969" transform="rotate(180 387.426 263.058)" fill="#614BC3"/>
<ellipse opacity="0.2" cx="387.426" cy="220.4" rx="7.04412" ry="7.1097" transform="rotate(180 387.426 220.4)" fill="#614BC3"/>
<ellipse opacity="0.12" cx="387.426" cy="177.743" rx="7.04412" ry="7.1097" transform="rotate(180 387.426 177.743)" fill="#614BC3"/>
<ellipse opacity="0.04" cx="387.426" cy="135.085" rx="7.04412" ry="7.10968" transform="rotate(180 387.426 135.085)" fill="#614BC3"/>
<ellipse opacity="0.76" cx="345.162" cy="476.349" rx="7.04412" ry="7.10969" transform="rotate(180 345.162 476.349)" fill="#614BC3"/>
<ellipse opacity="0.68" cx="345.162" cy="433.691" rx="7.04412" ry="7.10969" transform="rotate(180 345.162 433.691)" fill="#614BC3"/>
<ellipse opacity="0.6" cx="345.162" cy="391.033" rx="7.04412" ry="7.10969" transform="rotate(180 345.162 391.033)" fill="#614BC3"/>
<ellipse opacity="0.52" cx="345.162" cy="348.375" rx="7.04412" ry="7.10969" transform="rotate(180 345.162 348.375)" fill="#614BC3"/>
<ellipse opacity="0.44" cx="345.162" cy="305.716" rx="7.04412" ry="7.10969" transform="rotate(180 345.162 305.716)" fill="#614BC3"/>
<ellipse opacity="0.36" cx="345.162" cy="263.058" rx="7.04412" ry="7.10969" transform="rotate(180 345.162 263.058)" fill="#614BC3"/>
<ellipse opacity="0.28" cx="345.162" cy="220.4" rx="7.04412" ry="7.1097" transform="rotate(180 345.162 220.4)" fill="#614BC3"/>
<ellipse opacity="0.2" cx="345.162" cy="177.743" rx="7.04412" ry="7.1097" transform="rotate(180 345.162 177.743)" fill="#614BC3"/>
<ellipse opacity="0.12" cx="345.162" cy="135.085" rx="7.04412" ry="7.10968" transform="rotate(180 345.162 135.085)" fill="#614BC3"/>
<ellipse opacity="0.04" cx="345.162" cy="92.4265" rx="7.04412" ry="7.10968" transform="rotate(180 345.162 92.4265)" fill="#614BC3"/>
<ellipse opacity="0.84" cx="302.897" cy="476.349" rx="7.04412" ry="7.10969" transform="rotate(180 302.897 476.349)" fill="#614BC3"/>
<ellipse opacity="0.76" cx="302.897" cy="433.691" rx="7.04412" ry="7.10969" transform="rotate(180 302.897 433.691)" fill="#614BC3"/>
<ellipse opacity="0.68" cx="302.897" cy="391.033" rx="7.04412" ry="7.10969" transform="rotate(180 302.897 391.033)" fill="#614BC3"/>
<ellipse opacity="0.6" cx="302.897" cy="348.375" rx="7.04412" ry="7.10969" transform="rotate(180 302.897 348.375)" fill="#614BC3"/>
<ellipse opacity="0.52" cx="302.897" cy="305.716" rx="7.04412" ry="7.10969" transform="rotate(180 302.897 305.716)" fill="#614BC3"/>
<ellipse opacity="0.44" cx="302.897" cy="263.058" rx="7.04412" ry="7.10969" transform="rotate(180 302.897 263.058)" fill="#614BC3"/>
<ellipse opacity="0.36" cx="302.897" cy="220.4" rx="7.04412" ry="7.1097" transform="rotate(180 302.897 220.4)" fill="#614BC3"/>
<ellipse opacity="0.28" cx="302.897" cy="177.743" rx="7.04412" ry="7.1097" transform="rotate(180 302.897 177.743)" fill="#614BC3"/>
<ellipse opacity="0.2" cx="302.897" cy="135.085" rx="7.04412" ry="7.10968" transform="rotate(180 302.897 135.085)" fill="#614BC3"/>
<ellipse opacity="0.12" cx="302.897" cy="92.4265" rx="7.04412" ry="7.10968" transform="rotate(180 302.897 92.4265)" fill="#614BC3"/>
<ellipse opacity="0.04" cx="302.897" cy="49.7682" rx="7.04412" ry="7.1097" transform="rotate(180 302.897 49.7682)" fill="#614BC3"/>
<ellipse opacity="0.92" cx="260.632" cy="476.349" rx="7.04412" ry="7.10969" transform="rotate(180 260.632 476.349)" fill="#614BC3"/>
<ellipse opacity="0.84" cx="260.632" cy="433.691" rx="7.04412" ry="7.10969" transform="rotate(180 260.632 433.691)" fill="#614BC3"/>
<ellipse opacity="0.76" cx="260.632" cy="391.033" rx="7.04412" ry="7.10969" transform="rotate(180 260.632 391.033)" fill="#614BC3"/>
<ellipse opacity="0.68" cx="260.632" cy="348.375" rx="7.04412" ry="7.10969" transform="rotate(180 260.632 348.375)" fill="#614BC3"/>
<ellipse opacity="0.6" cx="260.632" cy="305.716" rx="7.04412" ry="7.10969" transform="rotate(180 260.632 305.716)" fill="#614BC3"/>
<ellipse opacity="0.52" cx="260.632" cy="263.058" rx="7.04412" ry="7.10969" transform="rotate(180 260.632 263.058)" fill="#614BC3"/>
<ellipse opacity="0.44" cx="260.632" cy="220.4" rx="7.04412" ry="7.1097" transform="rotate(180 260.632 220.4)" fill="#614BC3"/>
<ellipse opacity="0.36" cx="260.632" cy="177.743" rx="7.04412" ry="7.1097" transform="rotate(180 260.632 177.743)" fill="#614BC3"/>
<ellipse opacity="0.28" cx="260.632" cy="135.085" rx="7.04412" ry="7.10968" transform="rotate(180 260.632 135.085)" fill="#614BC3"/>
<ellipse opacity="0.2" cx="260.632" cy="92.4265" rx="7.04412" ry="7.10968" transform="rotate(180 260.632 92.4265)" fill="#614BC3"/>
<ellipse opacity="0.12" cx="260.632" cy="49.7682" rx="7.04412" ry="7.1097" transform="rotate(180 260.632 49.7682)" fill="#614BC3"/>
<ellipse opacity="0.04" cx="260.632" cy="7.11003" rx="7.04412" ry="7.1097" transform="rotate(180 260.632 7.11003)" fill="#614BC3"/>
<ellipse cx="218.368" cy="476.349" rx="7.04413" ry="7.10969" transform="rotate(180 218.368 476.349)" fill="#614BC3"/>
<ellipse cx="176.103" cy="476.349" rx="7.04411" ry="7.10969" transform="rotate(180 176.103 476.349)" fill="#614BC3"/>
<ellipse cx="133.838" cy="476.349" rx="7.04411" ry="7.10969" transform="rotate(180 133.838 476.349)" fill="#614BC3"/>
<ellipse cx="91.5736" cy="476.349" rx="7.04411" ry="7.10969" transform="rotate(180 91.5736 476.349)" fill="#614BC3"/>
<ellipse cx="49.3089" cy="476.349" rx="7.04411" ry="7.10969" transform="rotate(180 49.3089 476.349)" fill="#614BC3"/>
<ellipse cx="7.04414" cy="476.349" rx="7.04411" ry="7.10969" transform="rotate(180 7.04414 476.349)" fill="#614BC3"/>
<ellipse opacity="0.92" cx="218.368" cy="433.691" rx="7.04413" ry="7.10969" transform="rotate(180 218.368 433.691)" fill="#614BC3"/>
<ellipse cx="176.103" cy="433.691" rx="7.04411" ry="7.10969" transform="rotate(180 176.103 433.691)" fill="#614BC3"/>
<ellipse cx="133.838" cy="433.691" rx="7.04411" ry="7.10969" transform="rotate(180 133.838 433.691)" fill="#614BC3"/>
<ellipse cx="91.5736" cy="433.691" rx="7.04411" ry="7.10969" transform="rotate(180 91.5736 433.691)" fill="#614BC3"/>
<ellipse cx="49.3089" cy="433.691" rx="7.04411" ry="7.10969" transform="rotate(180 49.3089 433.691)" fill="#614BC3"/>
<ellipse cx="7.04414" cy="433.691" rx="7.04411" ry="7.10969" transform="rotate(180 7.04414 433.691)" fill="#614BC3"/>
<ellipse opacity="0.84" cx="218.368" cy="391.033" rx="7.04413" ry="7.10969" transform="rotate(180 218.368 391.033)" fill="#614BC3"/>
<ellipse opacity="0.92" cx="176.103" cy="391.033" rx="7.04411" ry="7.10969" transform="rotate(180 176.103 391.033)" fill="#614BC3"/>
<ellipse cx="133.838" cy="391.033" rx="7.04411" ry="7.10969" transform="rotate(180 133.838 391.033)" fill="#614BC3"/>
<ellipse cx="91.5736" cy="391.033" rx="7.04411" ry="7.10969" transform="rotate(180 91.5736 391.033)" fill="#614BC3"/>
<ellipse cx="49.3089" cy="391.033" rx="7.04411" ry="7.10969" transform="rotate(180 49.3089 391.033)" fill="#614BC3"/>
<ellipse cx="7.04414" cy="391.033" rx="7.04411" ry="7.10969" transform="rotate(180 7.04414 391.033)" fill="#614BC3"/>
<ellipse opacity="0.76" cx="218.368" cy="348.375" rx="7.04413" ry="7.10969" transform="rotate(180 218.368 348.375)" fill="#614BC3"/>
<ellipse opacity="0.84" cx="176.103" cy="348.375" rx="7.04411" ry="7.10969" transform="rotate(180 176.103 348.375)" fill="#614BC3"/>
<ellipse opacity="0.92" cx="133.838" cy="348.375" rx="7.04411" ry="7.10969" transform="rotate(180 133.838 348.375)" fill="#614BC3"/>
<ellipse cx="91.5736" cy="348.375" rx="7.04411" ry="7.10969" transform="rotate(180 91.5736 348.375)" fill="#614BC3"/>
<ellipse cx="49.3089" cy="348.375" rx="7.04411" ry="7.10969" transform="rotate(180 49.3089 348.375)" fill="#614BC3"/>
<ellipse cx="7.04414" cy="348.375" rx="7.04411" ry="7.10969" transform="rotate(180 7.04414 348.375)" fill="#614BC3"/>
<ellipse opacity="0.68" cx="218.368" cy="305.716" rx="7.04413" ry="7.10969" transform="rotate(180 218.368 305.716)" fill="#614BC3"/>
<ellipse opacity="0.76" cx="176.103" cy="305.716" rx="7.04411" ry="7.10969" transform="rotate(180 176.103 305.716)" fill="#614BC3"/>
<ellipse opacity="0.84" cx="133.838" cy="305.716" rx="7.04411" ry="7.10969" transform="rotate(180 133.838 305.716)" fill="#614BC3"/>
<ellipse opacity="0.92" cx="91.5736" cy="305.716" rx="7.04411" ry="7.10969" transform="rotate(180 91.5736 305.716)" fill="#614BC3"/>
<ellipse cx="49.3089" cy="305.716" rx="7.04411" ry="7.10969" transform="rotate(180 49.3089 305.716)" fill="#614BC3"/>
<ellipse cx="7.04414" cy="305.716" rx="7.04411" ry="7.10969" transform="rotate(180 7.04414 305.716)" fill="#614BC3"/>
<ellipse opacity="0.6" cx="218.368" cy="263.058" rx="7.04413" ry="7.10969" transform="rotate(180 218.368 263.058)" fill="#614BC3"/>
<ellipse opacity="0.68" cx="176.103" cy="263.058" rx="7.04411" ry="7.10969" transform="rotate(180 176.103 263.058)" fill="#614BC3"/>
<ellipse opacity="0.76" cx="133.838" cy="263.058" rx="7.04411" ry="7.10969" transform="rotate(180 133.838 263.058)" fill="#614BC3"/>
<ellipse opacity="0.84" cx="91.5736" cy="263.058" rx="7.04411" ry="7.10969" transform="rotate(180 91.5736 263.058)" fill="#614BC3"/>
<ellipse opacity="0.92" cx="49.3089" cy="263.058" rx="7.04411" ry="7.10969" transform="rotate(180 49.3089 263.058)" fill="#614BC3"/>
<ellipse cx="7.04414" cy="263.058" rx="7.04411" ry="7.10969" transform="rotate(180 7.04414 263.058)" fill="#614BC3"/>
<ellipse opacity="0.52" cx="218.368" cy="220.4" rx="7.04413" ry="7.1097" transform="rotate(180 218.368 220.4)" fill="#614BC3"/>
<ellipse opacity="0.6" cx="176.103" cy="220.4" rx="7.04411" ry="7.1097" transform="rotate(180 176.103 220.4)" fill="#614BC3"/>
<ellipse opacity="0.68" cx="133.838" cy="220.401" rx="7.04411" ry="7.1097" transform="rotate(180 133.838 220.401)" fill="#614BC3"/>
<ellipse opacity="0.76" cx="91.5736" cy="220.401" rx="7.04411" ry="7.1097" transform="rotate(180 91.5736 220.401)" fill="#614BC3"/>
<ellipse opacity="0.84" cx="49.3089" cy="220.401" rx="7.04411" ry="7.1097" transform="rotate(180 49.3089 220.401)" fill="#614BC3"/>
<ellipse opacity="0.92" cx="7.04414" cy="220.401" rx="7.04411" ry="7.1097" transform="rotate(180 7.04414 220.401)" fill="#614BC3"/>
<ellipse opacity="0.44" cx="218.368" cy="177.743" rx="7.04413" ry="7.1097" transform="rotate(180 218.368 177.743)" fill="#614BC3"/>
<ellipse opacity="0.52" cx="176.103" cy="177.743" rx="7.04411" ry="7.1097" transform="rotate(180 176.103 177.743)" fill="#614BC3"/>
<ellipse opacity="0.6" cx="133.838" cy="177.743" rx="7.04411" ry="7.1097" transform="rotate(180 133.838 177.743)" fill="#614BC3"/>
<ellipse opacity="0.68" cx="91.5736" cy="177.743" rx="7.04411" ry="7.1097" transform="rotate(180 91.5736 177.743)" fill="#614BC3"/>
<ellipse opacity="0.76" cx="49.3089" cy="177.743" rx="7.04411" ry="7.1097" transform="rotate(180 49.3089 177.743)" fill="#614BC3"/>
<ellipse opacity="0.84" cx="7.04414" cy="177.743" rx="7.04411" ry="7.1097" transform="rotate(180 7.04414 177.743)" fill="#614BC3"/>
<ellipse opacity="0.36" cx="218.368" cy="135.085" rx="7.04413" ry="7.10968" transform="rotate(180 218.368 135.085)" fill="#614BC3"/>
<ellipse opacity="0.44" cx="176.103" cy="135.085" rx="7.04411" ry="7.10968" transform="rotate(180 176.103 135.085)" fill="#614BC3"/>
<ellipse opacity="0.52" cx="133.838" cy="135.085" rx="7.04411" ry="7.10968" transform="rotate(180 133.838 135.085)" fill="#614BC3"/>
<ellipse opacity="0.6" cx="91.5736" cy="135.085" rx="7.04411" ry="7.10968" transform="rotate(180 91.5736 135.085)" fill="#614BC3"/>
<ellipse opacity="0.68" cx="49.3089" cy="135.085" rx="7.04411" ry="7.10968" transform="rotate(180 49.3089 135.085)" fill="#614BC3"/>
<ellipse opacity="0.76" cx="7.04414" cy="135.085" rx="7.04411" ry="7.10968" transform="rotate(180 7.04414 135.085)" fill="#614BC3"/>
<ellipse opacity="0.28" cx="218.368" cy="92.4265" rx="7.04413" ry="7.10968" transform="rotate(180 218.368 92.4265)" fill="#614BC3"/>
<ellipse opacity="0.36" cx="176.103" cy="92.4265" rx="7.04411" ry="7.10968" transform="rotate(180 176.103 92.4265)" fill="#614BC3"/>
<ellipse opacity="0.44" cx="133.838" cy="92.4265" rx="7.04411" ry="7.10968" transform="rotate(180 133.838 92.4265)" fill="#614BC3"/>
<ellipse opacity="0.52" cx="91.5736" cy="92.4265" rx="7.04411" ry="7.10968" transform="rotate(180 91.5736 92.4265)" fill="#614BC3"/>
<ellipse opacity="0.6" cx="49.3088" cy="92.4265" rx="7.04411" ry="7.10968" transform="rotate(180 49.3088 92.4265)" fill="#614BC3"/>
<ellipse opacity="0.68" cx="7.04414" cy="92.4265" rx="7.04411" ry="7.10968" transform="rotate(180 7.04414 92.4265)" fill="#614BC3"/>
<ellipse opacity="0.2" cx="218.368" cy="49.7682" rx="7.04413" ry="7.1097" transform="rotate(180 218.368 49.7682)" fill="#614BC3"/>
<ellipse opacity="0.28" cx="176.103" cy="49.7682" rx="7.04411" ry="7.1097" transform="rotate(180 176.103 49.7682)" fill="#614BC3"/>
<ellipse opacity="0.36" cx="133.838" cy="49.7682" rx="7.04411" ry="7.1097" transform="rotate(180 133.838 49.7682)" fill="#614BC3"/>
<ellipse opacity="0.44" cx="91.5736" cy="49.7682" rx="7.04411" ry="7.1097" transform="rotate(180 91.5736 49.7682)" fill="#614BC3"/>
<ellipse opacity="0.52" cx="49.3088" cy="49.7682" rx="7.04411" ry="7.1097" transform="rotate(180 49.3088 49.7682)" fill="#614BC3"/>
<ellipse opacity="0.6" cx="7.04414" cy="49.7682" rx="7.04411" ry="7.1097" transform="rotate(180 7.04414 49.7682)" fill="#614BC3"/>
<ellipse opacity="0.12" cx="218.368" cy="7.11003" rx="7.04413" ry="7.1097" transform="rotate(180 218.368 7.11003)" fill="#614BC3"/>
<ellipse opacity="0.2" cx="176.103" cy="7.11003" rx="7.04411" ry="7.1097" transform="rotate(180 176.103 7.11003)" fill="#614BC3"/>
<ellipse opacity="0.28" cx="133.838" cy="7.11003" rx="7.04411" ry="7.1097" transform="rotate(180 133.838 7.11003)" fill="#614BC3"/>
<ellipse opacity="0.36" cx="91.5736" cy="7.11003" rx="7.04411" ry="7.1097" transform="rotate(180 91.5736 7.11003)" fill="#614BC3"/>
<ellipse opacity="0.44" cx="49.3088" cy="7.11003" rx="7.04411" ry="7.1097" transform="rotate(180 49.3088 7.11003)" fill="#614BC3"/>
<ellipse opacity="0.52" cx="7.04414" cy="7.11003" rx="7.04411" ry="7.1097" transform="rotate(180 7.04414 7.11003)" fill="#614BC3"/>
</g>
<defs>
<filter id="filter0_d_578_2036" x="-25" y="-25" width="571.265" height="533.459" filterUnits="userSpaceOnUse" color-interpolation-filters="sRGB">
<feFlood flood-opacity="0" result="BackgroundImageFix"/>
<feColorMatrix in="SourceAlpha" type="matrix" values="0 0 0 0 0 0 0 0 0 0 0 0 0 0 0 0 0 0 127 0" result="hardAlpha"/>
<feOffset/>
<feGaussianBlur stdDeviation="12.5"/>
<feComposite in2="hardAlpha" operator="out"/>
<feColorMatrix type="matrix" values="0 0 0 0 0 0 0 0 0 0 0 0 0 0 0 0 0 0 0.25 0"/>
<feBlend mode="normal" in2="BackgroundImageFix" result="effect1_dropShadow_578_2036"/>
<feBlend mode="normal" in="SourceGraphic" in2="effect1_dropShadow_578_2036" result="shape"/>
</filter>
</defs>
</svg>
