<svg width="140" height="140" viewBox="0 0 140 140" fill="none" xmlns="http://www.w3.org/2000/svg">
<path d="M122.5 64.1667V52.5H110.833V40.8333C110.824 37.742 109.592 34.7799 107.406 32.594C105.22 30.408 102.258 29.1759 99.1667 29.1667H87.5V17.5H75.8333V29.1667H64.1667V17.5H52.5V29.1667H40.8333C37.742 29.1759 34.7799 30.408 32.594 32.594C30.408 34.7799 29.1759 37.742 29.1667 40.8333V52.5H17.5V64.1667H29.1667V75.8333H17.5V87.5H29.1667V99.1667C29.1759 102.258 30.408 105.22 32.594 107.406C34.7799 109.592 37.742 110.824 40.8333 110.833H52.5V122.5H64.1667V110.833H75.8333V122.5H87.5V110.833H99.1667C102.258 110.824 105.22 109.592 107.406 107.406C109.592 105.22 110.824 102.258 110.833 99.1667V87.5H122.5V75.8333H110.833V64.1667H122.5ZM99.1667 99.1667H40.8333V40.8333H99.1667V99.1667Z" fill="#614BC3"/>
<path d="M66.2725 46.667H58.4267L46.7017 93.3337H52.6925L55.3992 82.3962H68.9092L71.5458 93.3337H77.7408L66.2725 46.667ZM56.1867 77.7237L62.125 52.2087H62.3933L68.1275 77.7237H56.1867ZM83.09 46.667H88.9233V93.3337H83.09V46.667Z" fill="#614BC3"/>
</svg>
