<svg width="145" height="21" viewBox="0 0 145 21" fill="none" xmlns="http://www.w3.org/2000/svg">
<path fill-rule="evenodd" clip-rule="evenodd" d="M13.8608 6.89061C13.7216 6.40671 13.526 5.97915 13.2741 5.60794C13.0223 5.2301 12.714 4.91192 12.3494 4.6534C11.9915 4.38824 11.5805 4.18607 11.1165 4.04686C10.6591 3.90766 10.152 3.83806 9.59517 3.83806C8.55445 3.83806 7.63968 4.09658 6.85085 4.61362C6.06866 5.13067 5.45881 5.88304 5.02131 6.87072C4.58381 7.85179 4.36506 9.0516 4.36506 10.4702C4.36506 11.8887 4.58049 13.0952 5.01136 14.0895C5.44224 15.0838 6.05208 15.8428 6.84091 16.3665C7.62973 16.8835 8.56108 17.142 9.63494 17.142C10.6094 17.142 11.4413 16.9697 12.1307 16.625C12.8267 16.2737 13.357 15.7798 13.7216 15.1435C14.0743 14.5389 14.2594 13.8296 14.277 13.0156H9.90341V9.77413H18.4247V12.3395C18.4247 14.1292 18.0469 15.6671 17.2912 16.9531C16.5355 18.2325 15.4948 19.2202 14.169 19.9162C12.8433 20.6056 11.3253 20.9503 9.61506 20.9503C7.70597 20.9503 6.02888 20.5293 4.58381 19.6875C3.13873 18.839 2.01184 17.6359 1.20313 16.0781C0.401042 14.5137 0 12.6577 0 10.5099C0 8.85936 0.238636 7.38777 0.715909 6.09516C1.19981 4.79591 1.87595 3.69554 2.74432 2.79402C3.61269 1.89251 4.62358 1.20643 5.77699 0.735781C6.9304 0.265138 8.17992 0.0298157 9.52557 0.0298157C10.679 0.0298157 11.7528 0.19885 12.7472 0.536918C13.7415 0.868358 14.6231 1.339 15.392 1.94885C16.1676 2.5587 16.8007 3.28455 17.2912 4.12641C17.7817 4.96163 18.0966 5.88304 18.2358 6.89061H13.8608ZM21.5792 20.6719V5.39913H25.6857V8.06391H25.8448C26.1232 7.11599 26.5906 6.40008 27.2468 5.91618C27.9031 5.42565 28.6587 5.18038 29.5138 5.18038C29.726 5.18038 29.9547 5.19364 30.1999 5.22016C30.4452 5.24667 30.6606 5.28313 30.8462 5.32953V9.08805C30.6474 9.0284 30.3723 8.97536 30.021 8.92896C29.6696 8.88256 29.3481 8.85936 29.0565 8.85936C28.4334 8.85936 27.8765 8.99525 27.386 9.26703C26.9021 9.53218 26.5176 9.9034 26.2326 10.3807C25.9542 10.8579 25.815 11.4081 25.815 12.0312V20.6719H21.5792ZM35.2287 20.0156C36.3622 20.652 37.7145 20.9702 39.2855 20.9702C40.545 20.9702 41.6553 20.7779 42.6165 20.3935C43.5843 20.0024 44.3731 19.4588 44.983 18.7628C45.5994 18.0601 46.0071 17.2381 46.206 16.2969L42.2884 16.0383C42.1425 16.4228 41.9304 16.7476 41.652 17.0128C41.3736 17.2779 41.0388 17.4768 40.6477 17.6094C40.2566 17.7419 39.8258 17.8082 39.3551 17.8082C38.6458 17.8082 38.0327 17.6591 37.5156 17.3608C36.9986 17.0625 36.5975 16.6382 36.3125 16.0881C36.0341 15.5379 35.8949 14.8849 35.8949 14.1292V14.1193H46.2955V12.956C46.2955 11.6567 46.1132 10.5232 45.7486 9.55538C45.384 8.58095 44.8736 7.77224 44.2173 7.12925C43.5677 6.48626 42.8054 6.00567 41.9304 5.68749C41.062 5.36268 40.1241 5.20027 39.1165 5.20027C37.6184 5.20027 36.3125 5.53171 35.1989 6.19459C34.0919 6.85747 33.2334 7.78218 32.6236 8.96874C32.0137 10.1553 31.7088 11.5341 31.7088 13.1051C31.7088 14.7159 32.0137 16.1113 32.6236 17.2912C33.2334 18.4645 34.1018 19.3726 35.2287 20.0156ZM35.8989 11.4943C35.9244 10.9459 36.0656 10.4454 36.3224 9.99288C36.6009 9.49572 36.9853 9.10131 37.4759 8.80965C37.973 8.51135 38.5431 8.3622 39.1861 8.3622C39.8026 8.3622 40.3428 8.49809 40.8068 8.76987C41.2775 9.03502 41.6454 9.40292 41.9105 9.87357C42.1757 10.3442 42.3082 10.8845 42.3082 11.4943H35.8989ZM56.0199 20.9702C54.4489 20.9702 53.0966 20.652 51.9631 20.0156C50.8362 19.3726 49.9678 18.4645 49.358 17.2912C48.7481 16.1113 48.4432 14.7159 48.4432 13.1051C48.4432 11.5341 48.7481 10.1553 49.358 8.96874C49.9678 7.78218 50.8262 6.85747 51.9332 6.19459C53.0469 5.53171 54.3527 5.20027 55.8509 5.20027C56.8584 5.20027 57.7964 5.36268 58.6648 5.68749C59.5398 6.00567 60.3021 6.48626 60.9517 7.12925C61.608 7.77224 62.1184 8.58095 62.483 9.55538C62.8475 10.5232 63.0298 11.6567 63.0298 12.956V14.1193H52.6293V14.1292C52.6293 14.8849 52.7685 15.5379 53.0469 16.0881C53.3319 16.6382 53.733 17.0625 54.25 17.3608C54.767 17.6591 55.3802 17.8082 56.0895 17.8082C56.5601 17.8082 56.991 17.7419 57.3821 17.6094C57.7732 17.4768 58.108 17.2779 58.3864 17.0128C58.6648 16.7476 58.8769 16.4228 59.0227 16.0383L62.9403 16.2969C62.7415 17.2381 62.3338 18.0601 61.7173 18.7628C61.1075 19.4588 60.3187 20.0024 59.3509 20.3935C58.3897 20.7779 57.2794 20.9702 56.0199 20.9702ZM53.0568 9.99288C52.8 10.4454 52.6588 10.9459 52.6333 11.4943H59.0426C59.0426 10.8845 58.91 10.3442 58.6449 9.87357C58.3797 9.40292 58.0118 9.03502 57.5412 8.76987C57.0772 8.49809 56.5369 8.3622 55.9205 8.3622C55.2775 8.3622 54.7074 8.51135 54.2102 8.80965C53.7197 9.10131 53.3352 9.49572 53.0568 9.99288ZM70.0298 20.6719V11.8423C70.0365 11.1861 70.1591 10.6259 70.3977 10.1619C70.643 9.69127 70.9811 9.33332 71.4119 9.08805C71.8494 8.84279 72.3532 8.72016 72.9233 8.72016C73.7718 8.72016 74.438 8.98531 74.9219 9.51561C75.4058 10.0393 75.6444 10.7685 75.6378 11.7031V20.6719H79.8736V10.9474C79.8736 9.76088 79.6548 8.74004 79.2173 7.88493C78.7798 7.02319 78.1667 6.36031 77.3778 5.89629C76.589 5.43228 75.6643 5.20027 74.6037 5.20027C73.4702 5.20027 72.5057 5.46211 71.7102 5.98578C70.9148 6.50283 70.348 7.20548 70.0099 8.09374H69.831V5.39913H65.794V20.6719H70.0298ZM90.5103 20.6719H83.2915V0.308225H90.57C92.6182 0.308225 94.3815 0.715896 95.8597 1.53124C97.338 2.33995 98.4748 3.5033 99.2702 5.02129C100.072 6.53929 100.473 8.35557 100.473 10.4702C100.473 12.5914 100.072 14.4143 99.2702 15.9389C98.4748 17.4635 97.3313 18.6335 95.8398 19.4489C94.355 20.2642 92.5785 20.6719 90.5103 20.6719ZM87.5969 16.9829H90.3313C91.604 16.9829 92.6746 16.7576 93.543 16.3068C94.418 15.8494 95.0742 15.1435 95.5117 14.1889C95.9558 13.2277 96.1779 11.9882 96.1779 10.4702C96.1779 8.96542 95.9558 7.73578 95.5117 6.78124C95.0742 5.82669 94.4213 5.12404 93.5529 4.67328C92.6845 4.22252 91.614 3.99715 90.3413 3.99715H87.5969V16.9829ZM106.477 19.9858C107.603 20.642 108.939 20.9702 110.484 20.9702C112.028 20.9702 113.361 20.642 114.481 19.9858C115.608 19.3229 116.476 18.4015 117.086 17.2216C117.696 16.035 118.001 14.6596 118.001 13.0952C118.001 11.5175 117.696 10.1387 117.086 8.95879C116.476 7.77224 115.608 6.85084 114.481 6.19459C113.361 5.53171 112.028 5.20027 110.484 5.20027C108.939 5.20027 107.603 5.53171 106.477 6.19459C105.356 6.85084 104.491 7.77224 103.881 8.95879C103.272 10.1387 102.967 11.5175 102.967 13.0952C102.967 14.6596 103.272 16.035 103.881 17.2216C104.491 18.4015 105.356 19.3229 106.477 19.9858ZM128.879 5.39913V8.58095H126.005V15.9787C126.005 16.3698 126.065 16.6747 126.184 16.8935C126.303 17.1056 126.469 17.2547 126.681 17.3409C126.9 17.4271 127.152 17.4702 127.437 17.4702C127.636 17.4702 127.835 17.4536 128.033 17.4204C128.232 17.3807 128.385 17.3508 128.491 17.331L129.157 20.4829C128.945 20.5492 128.647 20.6255 128.262 20.7116C127.878 20.8044 127.41 20.8608 126.86 20.8807C125.839 20.9204 124.944 20.7846 124.175 20.473C123.413 20.1614 122.82 19.6775 122.396 19.0213C121.971 18.365 121.763 17.5364 121.769 16.5355V8.58095H119.681V5.39913H121.769V1.74004H126.005V5.39913H128.879ZM140.276 9.99288L144.154 9.75425C143.968 8.34894 143.319 7.23862 142.205 6.42328C141.098 5.60794 139.58 5.20027 137.651 5.20027C136.345 5.20027 135.205 5.39251 134.23 5.77697C133.263 6.16145 132.51 6.70832 131.973 7.4176C131.443 8.12688 131.178 8.97205 131.178 9.95311C131.178 11.0933 131.539 12.0312 132.262 12.767C132.991 13.5028 134.101 14.0199 135.593 14.3182L138.238 14.8452C138.9 14.9777 139.391 15.17 139.709 15.4219C140.027 15.6671 140.19 15.982 140.196 16.3665C140.19 16.8239 139.958 17.1984 139.5 17.49C139.05 17.7751 138.453 17.9176 137.711 17.9176C136.955 17.9176 136.335 17.7585 135.851 17.4403C135.367 17.1155 135.062 16.6449 134.936 16.0284L130.77 16.2471C130.976 17.7055 131.675 18.8589 132.868 19.7074C134.068 20.5492 135.679 20.9702 137.701 20.9702C139.026 20.9702 140.196 20.7614 141.211 20.3437C142.231 19.9195 143.034 19.3295 143.617 18.5739C144.207 17.8182 144.502 16.9399 144.502 15.9389C144.502 14.8385 144.137 13.9503 143.408 13.2741C142.679 12.598 141.572 12.1075 140.087 11.8025L137.323 11.2457C136.614 11.0933 136.113 10.8911 135.821 10.6392C135.53 10.3873 135.384 10.0791 135.384 9.71447C135.384 9.25709 135.609 8.8925 136.06 8.62072C136.511 8.34232 137.064 8.20311 137.721 8.20311C138.211 8.20311 138.632 8.28597 138.983 8.45169C139.341 8.61078 139.63 8.82622 139.848 9.098C140.067 9.36315 140.21 9.66144 140.276 9.99288Z" fill="#33BBC5"/>
</svg>
