<svg width="252" height="89" viewBox="0 0 252 89" fill="none" xmlns="http://www.w3.org/2000/svg">
<path fill-rule="evenodd" clip-rule="evenodd" d="M45.356 1.65304C47.6861 3.91966 47.7587 7.66809 45.5183 10.0254L12.8389 44.4096L45.5183 78.7938C47.7587 81.1511 47.686 84.8995 45.356 87.1661C43.026 89.4327 39.3209 89.3592 37.0805 87.0019L2.45085 50.5657C-0.816968 47.1274 -0.816953 41.6917 2.45085 38.2534L37.0805 1.8172C39.3209 -0.540088 43.026 -0.613586 45.356 1.65304ZM96.568 1.65305C98.898 3.91967 98.9706 7.66809 96.7302 10.0254L64.0509 44.4096L96.7302 78.7938C98.9706 81.1511 98.898 84.8995 96.568 87.1661C94.2379 89.4327 90.5329 89.3592 88.2924 87.0019L53.6628 50.5657C50.395 47.1274 50.395 41.6917 53.6628 38.2534L88.2925 1.81721C90.5329 -0.540079 94.238 -0.613577 96.568 1.65305ZM147.942 10.0254C150.183 7.6681 150.11 3.91968 147.78 1.65306C145.45 -0.613568 141.745 -0.54007 139.504 1.81722L104.875 38.2534C101.607 41.6917 101.607 47.1274 104.875 50.5657L139.504 87.002C141.745 89.3592 145.45 89.4327 147.78 87.1661C150.11 84.8995 150.183 81.1511 147.942 78.7938L115.263 44.4096L147.942 10.0254ZM198.992 1.65307C201.322 3.91969 201.395 7.66811 199.154 10.0254L166.475 44.4096L199.154 78.7938C201.395 81.1511 201.322 84.8995 198.992 87.1661C196.662 89.4328 192.957 89.3593 190.716 87.002L156.087 50.5657C152.819 47.1274 152.819 41.6917 156.087 38.2535L190.716 1.81723C192.957 -0.540061 196.662 -0.613559 198.992 1.65307ZM250.366 10.0254C252.606 7.66812 252.534 3.9197 250.204 1.65308C247.874 -0.61355 244.169 -0.540052 241.928 1.81724L207.299 38.2535C204.031 41.6917 204.031 47.1274 207.299 50.5657L241.928 87.002C244.169 89.3593 247.874 89.4328 250.204 87.1661C252.534 84.8995 252.606 81.1511 250.366 78.7938L217.687 44.4096L250.366 10.0254Z" fill="#C8FFE0"/>
</svg>
