<svg width="252" height="89" viewBox="0 0 252 89" fill="none" xmlns="http://www.w3.org/2000/svg">
<path fill-rule="evenodd" clip-rule="evenodd" d="M206.644 87.1663C204.314 84.8997 204.241 81.1513 206.482 78.794L239.161 44.4098L206.482 10.0256C204.241 7.66828 204.314 3.91986 206.644 1.65324C208.974 -0.613384 212.679 -0.53989 214.919 1.8174L249.549 38.2536C252.817 41.6919 252.817 47.1276 249.549 50.5659L214.919 87.0021C212.679 89.3594 208.974 89.4329 206.644 87.1663ZM155.432 87.1663C153.102 84.8997 153.029 81.1512 155.27 78.794L187.949 44.4098L155.27 10.0256C153.029 7.66828 153.102 3.91986 155.432 1.65324C157.762 -0.613389 161.467 -0.539894 163.708 1.8174L198.337 38.2536C201.605 41.6919 201.605 47.1276 198.337 50.5659L163.708 87.0021C161.467 89.3594 157.762 89.4329 155.432 87.1663ZM104.058 78.794C101.817 81.1512 101.89 84.8997 104.22 87.1663C106.55 89.4329 110.255 89.3594 112.496 87.0021L147.125 50.5659C150.393 47.1276 150.393 41.6919 147.125 38.2536L112.496 1.81739C110.255 -0.539899 106.55 -0.613393 104.22 1.65323C101.89 3.91986 101.817 7.66828 104.058 10.0256L136.737 44.4098L104.058 78.794ZM53.0081 87.1663C50.6781 84.8997 50.6055 81.1512 52.8459 78.794L85.5252 44.4098L52.8459 10.0256C50.6055 7.66827 50.6781 3.91985 53.0081 1.65323C55.3382 -0.613398 59.0432 -0.539904 61.2837 1.81739L95.9133 38.2536C99.1811 41.6919 99.1811 47.1276 95.9133 50.5659L61.2836 87.0021C59.0432 89.3594 55.3382 89.4329 53.0081 87.1663ZM1.63393 78.7939C-0.60649 81.1512 -0.533828 84.8997 1.79619 87.1663C4.12622 89.4329 7.83128 89.3594 10.0717 87.0021L44.7014 50.5659C47.9692 47.1276 47.9692 41.6919 44.7014 38.2536L10.0717 1.81738C7.83129 -0.539908 4.12623 -0.613402 1.7962 1.65322C-0.533821 3.91985 -0.606484 7.66827 1.63393 10.0256L34.3133 44.4098L1.63393 78.7939Z" fill="#C8FFE0"/>
</svg>
