<svg width="101" height="102" viewBox="0 0 101 102" fill="none" xmlns="http://www.w3.org/2000/svg">
<g clip-path="url(#clip0_1394_12256)">
<path d="M79.4633 10.5713C78.3095 10.5713 77.211 11.0992 76.2879 12.0309L74.0787 14.1644L87.0572 27.2637L89.1741 25.0339C91.0202 23.1706 91.0202 20.3942 89.1741 18.5309L82.731 12.0278C81.8079 11.0961 80.6172 10.5713 79.4633 10.5713ZM71.9618 16.0091L68.5956 18.8259L82.4418 32.8009L85.5187 29.6954L71.9618 16.0091ZM66.7679 21.0557L38.9833 48.8132C38.8427 48.9304 38.7129 49.0604 38.5956 49.2014L38.4049 49.2977C38.0693 49.6859 37.8373 50.154 37.731 50.6579L33.9803 63.9528C33.8195 64.4791 33.804 65.0396 33.9353 65.574C34.0667 66.1085 34.34 66.5967 34.7257 66.9861C35.1115 67.3755 35.5952 67.6513 36.1248 67.7839C36.6543 67.9165 37.2097 67.9008 37.731 67.7385L50.9033 63.9528C51.3407 63.8481 51.7491 63.6456 52.0985 63.3602C52.4479 63.0747 52.7292 62.7137 52.9218 62.3038L80.2326 35.0307L75.0387 29.4003V29.6923L71.3833 26.0028H71.6726L66.7679 21.0557ZM12.9249 23.1892C12.212 23.326 11.5701 23.7127 11.1123 24.281C10.6546 24.8493 10.4106 25.5625 10.4233 26.2948V88.4061C10.4233 89.2297 10.7475 90.0196 11.3245 90.602C11.9016 91.1844 12.6842 91.5116 13.5003 91.5116H75.0387C75.8548 91.5116 76.6374 91.1844 77.2144 90.602C77.7915 90.0196 78.1156 89.2297 78.1156 88.4061V54.2448C78.1156 53.4212 77.7915 52.6313 77.2144 52.0489C76.6374 51.4665 75.8548 51.1393 75.0387 51.1393C74.2227 51.1393 73.44 51.4665 72.863 52.0489C72.286 52.6313 71.9618 53.4212 71.9618 54.2448V85.3005H16.5772V29.4003H47.3464C48.1625 29.4003 48.9451 29.0731 49.5221 28.4907C50.0992 27.9083 50.4233 27.1184 50.4233 26.2948C50.4233 25.4711 50.0992 24.6812 49.5221 24.0988C48.9451 23.5164 48.1625 23.1892 47.3464 23.1892H13.5003C13.4039 23.1846 13.3074 23.1846 13.211 23.1892C13.1147 23.1846 13.0181 23.1846 12.9218 23.1892H12.9249ZM43.1187 53.6641L47.3495 53.9529L47.6387 58.6113L43.4079 59.8721L41.7741 58.2262L43.1187 53.6641Z" fill="black"/>
</g>
<defs>
<clipPath id="clip0_1394_12256">
<rect width="80" height="80.7447" fill="white" transform="translate(10.4233 10.7666)"/>
</clipPath>
</defs>
</svg>
