<svg width="101" height="102" viewBox="0 0 101 102" fill="none" xmlns="http://www.w3.org/2000/svg">
<path d="M45.2706 17.4951C50.5905 17.4948 55.803 19.0061 60.3116 21.8561C64.8202 24.7061 68.4428 28.7797 70.7647 33.6107C73.0866 38.4417 74.0141 43.8349 73.441 49.173C72.8678 54.5112 70.8173 59.5786 67.524 63.7955L79.6973 76.0821C80.3045 76.7166 80.6405 77.5665 80.6329 78.4486C80.6253 79.3307 80.2747 80.1746 79.6567 80.7983C79.0387 81.4221 78.2026 81.7759 77.3286 81.7836C76.4546 81.7913 75.6126 81.4522 74.984 80.8393L62.8106 68.5527C59.2621 71.3752 55.0963 73.3004 50.6607 74.1675C46.2251 75.0346 41.6484 74.8185 37.3123 73.5373C32.9763 72.2561 29.0067 69.9468 25.7347 66.8023C22.4628 63.6577 19.9833 59.769 18.5032 55.4605C17.0231 51.1521 16.5853 46.5489 17.2263 42.0349C17.8673 37.521 19.5686 33.2272 22.1881 29.5118C24.8076 25.7964 28.2695 22.7672 32.2848 20.6768C36.3002 18.5864 40.7526 17.4955 45.2706 17.4951ZM45.2706 24.2238C39.5243 24.2238 34.0133 26.5278 29.95 30.6289C25.8867 34.73 23.604 40.2923 23.604 46.0922C23.604 51.892 25.8867 57.4543 29.95 61.5555C34.0133 65.6566 39.5243 67.9605 45.2706 67.9605C51.017 67.9605 56.528 65.6566 60.5913 61.5555C64.6546 57.4543 66.9373 51.892 66.9373 46.0922C66.9373 40.2923 64.6546 34.73 60.5913 30.6289C56.528 26.5278 51.017 24.2238 45.2706 24.2238ZM45.2706 27.5882C50.1329 27.5882 54.7961 29.5377 58.2342 33.0079C61.6724 36.4781 63.604 41.1846 63.604 46.0922C63.604 50.9998 61.6724 55.7063 58.2342 59.1765C54.7961 62.6467 50.1329 64.5962 45.2706 64.5962C40.4083 64.5962 35.7452 62.6467 32.307 59.1765C28.8688 55.7063 26.9373 50.9998 26.9373 46.0922C26.9373 41.1846 28.8688 36.4781 32.307 33.0079C35.7452 29.5377 40.4083 27.5882 45.2706 27.5882Z" fill="black"/>
</svg>
