<svg width="101" height="102" viewBox="0 0 101 102" fill="none" xmlns="http://www.w3.org/2000/svg">
<g clip-path="url(#clip0_1394_12229)">
<path d="M70.5764 44.4102H53.9097V37.6815L63.9097 37.6479C66.5561 37.6479 69.0946 36.5891 70.9691 34.7036C72.8435 32.818 73.9009 30.2594 73.9097 27.5884V20.8597C73.9018 18.1853 72.8457 15.6227 70.9721 13.7316C69.0984 11.8405 66.5595 10.7746 63.9097 10.7666H37.2431C34.5934 10.7746 32.0544 11.8405 30.1808 13.7316C28.3071 15.6227 27.251 18.1853 27.2431 20.8597V27.5884C27.251 30.2628 28.3071 32.8254 30.1808 34.7165C32.0544 36.6076 34.5934 37.6735 37.2431 37.6815H47.2431V44.4102H30.5764C27.9267 44.4182 25.3877 45.4841 23.5141 47.3752C21.6404 49.2663 20.5843 51.8289 20.5764 54.5033V81.4182C20.5843 84.0926 21.6404 86.6552 23.5141 88.5463C25.3877 90.4374 27.9267 91.5033 30.5764 91.5113H70.5764C73.2261 91.5033 75.7651 90.4374 77.6387 88.5463C79.5124 86.6552 80.5685 84.0926 80.5764 81.4182V54.5033C80.5685 51.8289 79.5124 49.2663 77.6387 47.3752C75.7651 45.4841 73.2261 44.4182 70.5764 44.4102ZM37.2431 30.9528C36.3598 30.9501 35.5135 30.5948 34.889 29.9644C34.2644 29.3341 33.9124 28.4799 33.9097 27.5884V20.8597C33.9124 19.9682 34.2644 19.114 34.889 18.4837C35.5135 17.8533 36.3598 17.498 37.2431 17.4953H63.8764C64.763 17.497 65.6133 17.851 66.2434 18.4806C66.8734 19.1102 67.2326 19.9649 67.2431 20.8597V27.5884C67.2326 28.4832 66.8734 29.3379 66.2434 29.9675C65.6133 30.5971 64.763 30.9511 63.8764 30.9528H37.2431ZM52.0264 78.2961L50.5764 79.736L49.1264 78.2826C43.9764 73.1452 40.5764 69.7573 40.5764 65.599C40.5379 64.8358 40.6503 64.0726 40.9069 63.3537C41.1635 62.6349 41.5593 61.9747 42.0711 61.4117C42.583 60.8488 43.2008 60.3942 43.8884 60.0746C44.576 59.7549 45.3198 59.5765 46.0764 59.5498C46.9495 59.5662 47.8076 59.7814 48.5868 60.1793C49.366 60.5772 50.0461 61.1475 50.5764 61.8477C51.1067 61.1475 51.7868 60.5772 52.566 60.1793C53.3452 59.7814 54.2033 59.5662 55.0764 59.5498C55.833 59.5765 56.5768 59.7549 57.2644 60.0746C57.9521 60.3942 58.5698 60.8488 59.0817 61.4117C59.5936 61.9747 59.9893 62.6349 60.246 63.3537C60.5026 64.0726 60.6149 64.8358 60.5764 65.599C60.5764 69.7573 57.1764 73.1452 52.0264 78.2961Z" fill="black"/>
<path d="M47.2432 24.2236H53.9098V27.588H47.2432V24.2236Z" fill="black"/>
<path d="M40.5765 27.5881C42.4174 27.5881 43.9098 26.0818 43.9098 24.2237C43.9098 22.3657 42.4174 20.8594 40.5765 20.8594C38.7355 20.8594 37.2432 22.3657 37.2432 24.2237C37.2432 26.0818 38.7355 27.5881 40.5765 27.5881Z" fill="black"/>
<path d="M60.5765 27.5881C62.4174 27.5881 63.9098 26.0818 63.9098 24.2237C63.9098 22.3657 62.4174 20.8594 60.5765 20.8594C58.7355 20.8594 57.2432 22.3657 57.2432 24.2237C57.2432 26.0818 58.7355 27.5881 60.5765 27.5881Z" fill="black"/>
</g>
<defs>
<clipPath id="clip0_1394_12229">
<rect width="80" height="80.7447" fill="white" transform="translate(10.5764 10.7666)"/>
</clipPath>
</defs>
</svg>
