<svg width="252" height="90" viewBox="0 0 252 90" fill="none" xmlns="http://www.w3.org/2000/svg">
<path fill-rule="evenodd" clip-rule="evenodd" d="M45.356 2.47237C47.6861 4.739 47.7587 8.48742 45.5183 10.8447L12.8389 45.2289L45.5183 79.6131C47.7587 81.9704 47.686 85.7188 45.356 87.9854C43.026 90.2521 39.3209 90.1786 37.0805 87.8213L2.45085 51.385C-0.816968 47.9467 -0.816953 42.511 2.45085 39.0728L37.0805 2.63654C39.3209 0.279248 43.026 0.20575 45.356 2.47237ZM96.568 2.47238C98.898 4.73901 98.9706 8.48743 96.7302 10.8447L64.0509 45.2289L96.7302 79.6131C98.9706 81.9704 98.898 85.7188 96.568 87.9854C94.2379 90.2521 90.5329 90.1786 88.2924 87.8213L53.6628 51.385C50.395 47.9467 50.395 42.5111 53.6628 39.0728L88.2925 2.63655C90.5329 0.279257 94.238 0.205759 96.568 2.47238ZM147.942 10.8447C150.183 8.48744 150.11 4.73902 147.78 2.47239C145.45 0.205768 141.745 0.279266 139.504 2.63656L104.875 39.0728C101.607 42.5111 101.607 47.9468 104.875 51.385L139.504 87.8213C141.745 90.1786 145.45 90.2521 147.78 87.9855C150.11 85.7188 150.183 81.9704 147.942 79.6131L115.263 45.2289L147.942 10.8447ZM198.992 2.4724C201.322 4.73903 201.395 8.48745 199.154 10.8447L166.475 45.2289L199.154 79.6131C201.395 81.9704 201.322 85.7188 198.992 87.9855C196.662 90.2521 192.957 90.1786 190.716 87.8213L156.087 51.3851C152.819 47.9468 152.819 42.5111 156.087 39.0728L190.716 2.63656C192.957 0.279275 196.662 0.205777 198.992 2.4724ZM250.366 10.8447C252.606 8.48746 252.534 4.73904 250.204 2.47241C247.874 0.205786 244.169 0.279284 241.928 2.63657L207.299 39.0728C204.031 42.5111 204.031 47.9468 207.299 51.3851L241.928 87.8213C244.169 90.1786 247.874 90.2521 250.204 87.9855C252.534 85.7188 252.606 81.9704 250.366 79.6131L217.687 45.2289L250.366 10.8447Z" fill="#C8FFE0"/>
</svg>
