<svg width="252" height="90" viewBox="0 0 252 90" fill="none" xmlns="http://www.w3.org/2000/svg">
<path fill-rule="evenodd" clip-rule="evenodd" d="M45.356 2.02804C47.6861 4.29466 47.7587 8.04309 45.5183 10.4004L12.8389 44.7846L45.5183 79.1688C47.7587 81.5261 47.686 85.2745 45.356 87.5411C43.026 89.8077 39.3209 89.7342 37.0805 87.3769L2.45085 50.9407C-0.816968 47.5024 -0.816953 42.0667 2.45085 38.6284L37.0805 2.1922C39.3209 -0.165088 43.026 -0.238586 45.356 2.02804ZM96.568 2.02805C98.898 4.29467 98.9706 8.04309 96.7302 10.4004L64.0509 44.7846L96.7302 79.1688C98.9706 81.5261 98.898 85.2745 96.568 87.5411C94.2379 89.8077 90.5329 89.7342 88.2924 87.3769L53.6628 50.9407C50.395 47.5024 50.395 42.0667 53.6628 38.6284L88.2925 2.19221C90.5329 -0.165079 94.238 -0.238577 96.568 2.02805ZM147.942 10.4004C150.183 8.0431 150.11 4.29468 147.78 2.02806C145.45 -0.238568 141.745 -0.16507 139.504 2.19222L104.875 38.6284C101.607 42.0667 101.607 47.5024 104.875 50.9407L139.504 87.377C141.745 89.7342 145.45 89.8077 147.78 87.5411C150.11 85.2745 150.183 81.5261 147.942 79.1688L115.263 44.7846L147.942 10.4004ZM198.992 2.02807C201.322 4.29469 201.395 8.04311 199.154 10.4004L166.475 44.7846L199.154 79.1688C201.395 81.5261 201.322 85.2745 198.992 87.5411C196.662 89.8078 192.957 89.7343 190.716 87.377L156.087 50.9407C152.819 47.5024 152.819 42.0667 156.087 38.6285L190.716 2.19223C192.957 -0.165061 196.662 -0.238559 198.992 2.02807ZM250.366 10.4004C252.606 8.04312 252.534 4.2947 250.204 2.02807C247.874 -0.23855 244.169 -0.165052 241.928 2.19224L207.299 38.6285C204.031 42.0667 204.031 47.5024 207.299 50.9407L241.928 87.377C244.169 89.7343 247.874 89.8078 250.204 87.5411C252.534 85.2745 252.606 81.5261 250.366 79.1688L217.687 44.7846L250.366 10.4004Z" fill="#C8FFE0"/>
</svg>
