<svg width="252" height="90" viewBox="0 0 252 90" fill="none" xmlns="http://www.w3.org/2000/svg">
<path fill-rule="evenodd" clip-rule="evenodd" d="M206.644 87.722C204.314 85.4553 204.241 81.7069 206.482 79.3496L239.161 44.9654L206.482 10.5812C204.241 8.22395 204.314 4.47553 206.644 2.2089C208.974 -0.0577202 212.679 0.0157741 214.919 2.37307L249.549 38.8093C252.817 42.2476 252.817 47.6833 249.549 51.1216L214.919 87.5578C212.679 89.9151 208.974 89.9886 206.644 87.722ZM155.432 87.722C153.102 85.4553 153.029 81.7069 155.27 79.3496L187.949 44.9654L155.27 10.5812C153.029 8.22394 153.102 4.47552 155.432 2.2089C157.762 -0.0577247 161.467 0.0157696 163.708 2.37306L198.337 38.8093C201.605 42.2476 201.605 47.6833 198.337 51.1216L163.708 87.5578C161.467 89.9151 157.762 89.9886 155.432 87.722ZM104.058 79.3496C101.817 81.7069 101.89 85.4553 104.22 87.722C106.55 89.9886 110.255 89.9151 112.496 87.5578L147.125 51.1216C150.393 47.6833 150.393 42.2476 147.125 38.8093L112.496 2.37306C110.255 0.0157651 106.55 -0.0577292 104.22 2.2089C101.89 4.47552 101.817 8.22394 104.058 10.5812L136.737 44.9654L104.058 79.3496ZM53.0081 87.722C50.6781 85.4553 50.6055 81.7069 52.8459 79.3496L85.5252 44.9654L52.8459 10.5812C50.6055 8.22394 50.6781 4.47551 53.0081 2.20889C55.3382 -0.0577337 59.0432 0.0157606 61.2837 2.37305L95.9133 38.8093C99.1811 42.2476 99.1811 47.6833 95.9133 51.1216L61.2836 87.5578C59.0432 89.9151 55.3382 89.9886 53.0081 87.722ZM1.63393 79.3496C-0.60649 81.7069 -0.533828 85.4553 1.79619 87.7219C4.12622 89.9886 7.83128 89.9151 10.0717 87.5578L44.7014 51.1216C47.9692 47.6833 47.9692 42.2476 44.7014 38.8093L10.0717 2.37305C7.83129 0.015756 4.12623 -0.0577382 1.7962 2.20889C-0.533821 4.47551 -0.606484 8.22393 1.63393 10.5812L34.3133 44.9654L1.63393 79.3496Z" fill="#C8FFE0"/>
</svg>
