<svg width="501" height="423" viewBox="0 0 501 423" fill="none" xmlns="http://www.w3.org/2000/svg">
<g filter="url(#filter0_d_1394_12211)">
<ellipse opacity="0.44" cx="31.5589" cy="30.4779" rx="6.08824" ry="5.47794" fill="#614BC3"/>
<ellipse opacity="0.36" cx="31.5589" cy="63.3451" rx="6.08824" ry="5.47794" fill="#614BC3"/>
<ellipse opacity="0.28" cx="31.5589" cy="96.2133" rx="6.08824" ry="5.47794" fill="#614BC3"/>
<ellipse opacity="0.2" cx="31.5589" cy="129.08" rx="6.08824" ry="5.47794" fill="#614BC3"/>
<ellipse opacity="0.12" cx="31.5589" cy="161.949" rx="6.08824" ry="5.47794" fill="#614BC3"/>
<ellipse opacity="0.04" cx="31.5589" cy="194.816" rx="6.08824" ry="5.47794" fill="#614BC3"/>
<ellipse opacity="0.52" cx="68.0882" cy="30.4779" rx="6.08824" ry="5.47794" fill="#614BC3"/>
<ellipse opacity="0.44" cx="68.0882" cy="63.3451" rx="6.08824" ry="5.47794" fill="#614BC3"/>
<ellipse opacity="0.36" cx="68.0882" cy="96.2133" rx="6.08824" ry="5.47794" fill="#614BC3"/>
<ellipse opacity="0.28" cx="68.0882" cy="129.08" rx="6.08824" ry="5.47794" fill="#614BC3"/>
<ellipse opacity="0.2" cx="68.0882" cy="161.949" rx="6.08824" ry="5.47794" fill="#614BC3"/>
<ellipse opacity="0.12" cx="68.0882" cy="194.816" rx="6.08824" ry="5.47794" fill="#614BC3"/>
<ellipse opacity="0.04" cx="68.0882" cy="227.684" rx="6.08824" ry="5.47794" fill="#614BC3"/>
<ellipse opacity="0.6" cx="104.618" cy="30.4779" rx="6.08824" ry="5.47794" fill="#614BC3"/>
<ellipse opacity="0.52" cx="104.618" cy="63.3451" rx="6.08824" ry="5.47794" fill="#614BC3"/>
<ellipse opacity="0.44" cx="104.618" cy="96.2133" rx="6.08824" ry="5.47794" fill="#614BC3"/>
<ellipse opacity="0.36" cx="104.618" cy="129.08" rx="6.08824" ry="5.47794" fill="#614BC3"/>
<ellipse opacity="0.28" cx="104.618" cy="161.949" rx="6.08824" ry="5.47794" fill="#614BC3"/>
<ellipse opacity="0.2" cx="104.618" cy="194.816" rx="6.08824" ry="5.47794" fill="#614BC3"/>
<ellipse opacity="0.12" cx="104.618" cy="227.684" rx="6.08824" ry="5.47794" fill="#614BC3"/>
<ellipse opacity="0.04" cx="104.618" cy="260.551" rx="6.08824" ry="5.47794" fill="#614BC3"/>
<ellipse opacity="0.68" cx="141.147" cy="30.4779" rx="6.08824" ry="5.47794" fill="#614BC3"/>
<ellipse opacity="0.6" cx="141.147" cy="63.3451" rx="6.08824" ry="5.47794" fill="#614BC3"/>
<ellipse opacity="0.52" cx="141.147" cy="96.2133" rx="6.08824" ry="5.47794" fill="#614BC3"/>
<ellipse opacity="0.44" cx="141.147" cy="129.08" rx="6.08824" ry="5.47794" fill="#614BC3"/>
<ellipse opacity="0.36" cx="141.147" cy="161.949" rx="6.08824" ry="5.47794" fill="#614BC3"/>
<ellipse opacity="0.28" cx="141.147" cy="194.816" rx="6.08824" ry="5.47794" fill="#614BC3"/>
<ellipse opacity="0.2" cx="141.147" cy="227.684" rx="6.08824" ry="5.47794" fill="#614BC3"/>
<ellipse opacity="0.12" cx="141.147" cy="260.551" rx="6.08824" ry="5.47794" fill="#614BC3"/>
<ellipse opacity="0.04" cx="141.147" cy="293.419" rx="6.08824" ry="5.47795" fill="#614BC3"/>
<ellipse opacity="0.76" cx="177.677" cy="30.4779" rx="6.08823" ry="5.47794" fill="#614BC3"/>
<ellipse opacity="0.68" cx="177.677" cy="63.3451" rx="6.08823" ry="5.47794" fill="#614BC3"/>
<ellipse opacity="0.6" cx="177.677" cy="96.2133" rx="6.08823" ry="5.47794" fill="#614BC3"/>
<ellipse opacity="0.52" cx="177.677" cy="129.08" rx="6.08823" ry="5.47794" fill="#614BC3"/>
<ellipse opacity="0.44" cx="177.677" cy="161.949" rx="6.08823" ry="5.47794" fill="#614BC3"/>
<ellipse opacity="0.36" cx="177.677" cy="194.816" rx="6.08823" ry="5.47794" fill="#614BC3"/>
<ellipse opacity="0.28" cx="177.677" cy="227.684" rx="6.08823" ry="5.47794" fill="#614BC3"/>
<ellipse opacity="0.2" cx="177.677" cy="260.551" rx="6.08823" ry="5.47794" fill="#614BC3"/>
<ellipse opacity="0.12" cx="177.677" cy="293.419" rx="6.08823" ry="5.47795" fill="#614BC3"/>
<ellipse opacity="0.04" cx="177.677" cy="326.287" rx="6.08823" ry="5.47794" fill="#614BC3"/>
<ellipse opacity="0.84" cx="214.206" cy="30.4779" rx="6.08823" ry="5.47794" fill="#614BC3"/>
<ellipse opacity="0.76" cx="214.206" cy="63.3451" rx="6.08823" ry="5.47794" fill="#614BC3"/>
<ellipse opacity="0.68" cx="214.206" cy="96.2133" rx="6.08823" ry="5.47794" fill="#614BC3"/>
<ellipse opacity="0.6" cx="214.206" cy="129.08" rx="6.08823" ry="5.47794" fill="#614BC3"/>
<ellipse opacity="0.52" cx="214.206" cy="161.949" rx="6.08823" ry="5.47794" fill="#614BC3"/>
<ellipse opacity="0.44" cx="214.206" cy="194.816" rx="6.08823" ry="5.47794" fill="#614BC3"/>
<ellipse opacity="0.36" cx="214.206" cy="227.684" rx="6.08823" ry="5.47794" fill="#614BC3"/>
<ellipse opacity="0.28" cx="214.206" cy="260.551" rx="6.08823" ry="5.47794" fill="#614BC3"/>
<ellipse opacity="0.2" cx="214.206" cy="293.419" rx="6.08823" ry="5.47795" fill="#614BC3"/>
<ellipse opacity="0.12" cx="214.206" cy="326.287" rx="6.08823" ry="5.47794" fill="#614BC3"/>
<ellipse opacity="0.04" cx="214.206" cy="359.155" rx="6.08823" ry="5.47794" fill="#614BC3"/>
<ellipse opacity="0.92" cx="250.735" cy="30.4779" rx="6.08824" ry="5.47794" fill="#614BC3"/>
<ellipse opacity="0.84" cx="250.735" cy="63.3451" rx="6.08824" ry="5.47794" fill="#614BC3"/>
<ellipse opacity="0.76" cx="250.735" cy="96.2133" rx="6.08824" ry="5.47794" fill="#614BC3"/>
<ellipse opacity="0.68" cx="250.735" cy="129.08" rx="6.08824" ry="5.47794" fill="#614BC3"/>
<ellipse opacity="0.6" cx="250.735" cy="161.949" rx="6.08824" ry="5.47794" fill="#614BC3"/>
<ellipse opacity="0.52" cx="250.735" cy="194.816" rx="6.08824" ry="5.47794" fill="#614BC3"/>
<ellipse opacity="0.44" cx="250.735" cy="227.684" rx="6.08824" ry="5.47794" fill="#614BC3"/>
<ellipse opacity="0.36" cx="250.735" cy="260.551" rx="6.08824" ry="5.47794" fill="#614BC3"/>
<ellipse opacity="0.28" cx="250.735" cy="293.419" rx="6.08824" ry="5.47795" fill="#614BC3"/>
<ellipse opacity="0.2" cx="250.735" cy="326.287" rx="6.08824" ry="5.47794" fill="#614BC3"/>
<ellipse opacity="0.12" cx="250.735" cy="359.155" rx="6.08824" ry="5.47794" fill="#614BC3"/>
<ellipse opacity="0.04" cx="250.735" cy="392.022" rx="6.08824" ry="5.47794" fill="#614BC3"/>
<ellipse cx="287.265" cy="30.4779" rx="6.08823" ry="5.47794" fill="#614BC3"/>
<ellipse cx="323.794" cy="30.4779" rx="6.08824" ry="5.47794" fill="#614BC3"/>
<ellipse cx="360.324" cy="30.4779" rx="6.08824" ry="5.47794" fill="#614BC3"/>
<ellipse cx="396.853" cy="30.4779" rx="6.08823" ry="5.47794" fill="#614BC3"/>
<ellipse cx="433.383" cy="30.4779" rx="6.08823" ry="5.47794" fill="#614BC3"/>
<ellipse cx="469.912" cy="30.4779" rx="6.08824" ry="5.47794" fill="#614BC3"/>
<ellipse opacity="0.92" cx="287.265" cy="63.3451" rx="6.08823" ry="5.47794" fill="#614BC3"/>
<ellipse cx="323.794" cy="63.3451" rx="6.08824" ry="5.47794" fill="#614BC3"/>
<ellipse cx="360.324" cy="63.3451" rx="6.08824" ry="5.47794" fill="#614BC3"/>
<ellipse cx="396.853" cy="63.3451" rx="6.08823" ry="5.47794" fill="#614BC3"/>
<ellipse cx="433.383" cy="63.3451" rx="6.08823" ry="5.47794" fill="#614BC3"/>
<ellipse cx="469.912" cy="63.3451" rx="6.08824" ry="5.47794" fill="#614BC3"/>
<ellipse opacity="0.84" cx="287.265" cy="96.2133" rx="6.08823" ry="5.47794" fill="#614BC3"/>
<ellipse opacity="0.92" cx="323.794" cy="96.2133" rx="6.08824" ry="5.47794" fill="#614BC3"/>
<ellipse cx="360.324" cy="96.2133" rx="6.08824" ry="5.47794" fill="#614BC3"/>
<ellipse cx="396.853" cy="96.2133" rx="6.08823" ry="5.47794" fill="#614BC3"/>
<ellipse cx="433.383" cy="96.2133" rx="6.08823" ry="5.47794" fill="#614BC3"/>
<ellipse cx="469.912" cy="96.2133" rx="6.08824" ry="5.47794" fill="#614BC3"/>
<ellipse opacity="0.76" cx="287.265" cy="129.08" rx="6.08823" ry="5.47794" fill="#614BC3"/>
<ellipse opacity="0.84" cx="323.794" cy="129.08" rx="6.08824" ry="5.47794" fill="#614BC3"/>
<ellipse opacity="0.92" cx="360.324" cy="129.08" rx="6.08824" ry="5.47794" fill="#614BC3"/>
<ellipse cx="396.853" cy="129.08" rx="6.08823" ry="5.47794" fill="#614BC3"/>
<ellipse cx="433.383" cy="129.08" rx="6.08823" ry="5.47794" fill="#614BC3"/>
<ellipse cx="469.912" cy="129.08" rx="6.08824" ry="5.47794" fill="#614BC3"/>
<ellipse opacity="0.68" cx="287.265" cy="161.949" rx="6.08823" ry="5.47794" fill="#614BC3"/>
<ellipse opacity="0.76" cx="323.794" cy="161.949" rx="6.08824" ry="5.47794" fill="#614BC3"/>
<ellipse opacity="0.84" cx="360.324" cy="161.949" rx="6.08824" ry="5.47794" fill="#614BC3"/>
<ellipse opacity="0.92" cx="396.853" cy="161.949" rx="6.08823" ry="5.47794" fill="#614BC3"/>
<ellipse cx="433.383" cy="161.949" rx="6.08823" ry="5.47794" fill="#614BC3"/>
<ellipse cx="469.912" cy="161.949" rx="6.08824" ry="5.47794" fill="#614BC3"/>
<ellipse opacity="0.6" cx="287.265" cy="194.816" rx="6.08823" ry="5.47794" fill="#614BC3"/>
<ellipse opacity="0.68" cx="323.794" cy="194.816" rx="6.08824" ry="5.47794" fill="#614BC3"/>
<ellipse opacity="0.76" cx="360.324" cy="194.816" rx="6.08824" ry="5.47794" fill="#614BC3"/>
<ellipse opacity="0.84" cx="396.853" cy="194.816" rx="6.08823" ry="5.47794" fill="#614BC3"/>
<ellipse opacity="0.92" cx="433.383" cy="194.816" rx="6.08823" ry="5.47794" fill="#614BC3"/>
<ellipse cx="469.912" cy="194.816" rx="6.08824" ry="5.47794" fill="#614BC3"/>
<ellipse opacity="0.52" cx="287.265" cy="227.684" rx="6.08823" ry="5.47794" fill="#614BC3"/>
<ellipse opacity="0.6" cx="323.794" cy="227.684" rx="6.08824" ry="5.47794" fill="#614BC3"/>
<ellipse opacity="0.68" cx="360.324" cy="227.684" rx="6.08824" ry="5.47794" fill="#614BC3"/>
<ellipse opacity="0.76" cx="396.853" cy="227.684" rx="6.08823" ry="5.47794" fill="#614BC3"/>
<ellipse opacity="0.84" cx="433.383" cy="227.684" rx="6.08823" ry="5.47794" fill="#614BC3"/>
<ellipse opacity="0.92" cx="469.912" cy="227.684" rx="6.08824" ry="5.47794" fill="#614BC3"/>
<ellipse opacity="0.44" cx="287.265" cy="260.551" rx="6.08823" ry="5.47794" fill="#614BC3"/>
<ellipse opacity="0.52" cx="323.794" cy="260.551" rx="6.08824" ry="5.47794" fill="#614BC3"/>
<ellipse opacity="0.6" cx="360.324" cy="260.551" rx="6.08824" ry="5.47794" fill="#614BC3"/>
<ellipse opacity="0.68" cx="396.853" cy="260.551" rx="6.08823" ry="5.47794" fill="#614BC3"/>
<ellipse opacity="0.76" cx="433.383" cy="260.551" rx="6.08823" ry="5.47794" fill="#614BC3"/>
<ellipse opacity="0.84" cx="469.912" cy="260.551" rx="6.08824" ry="5.47794" fill="#614BC3"/>
<ellipse opacity="0.36" cx="287.265" cy="293.419" rx="6.08823" ry="5.47795" fill="#614BC3"/>
<ellipse opacity="0.44" cx="323.794" cy="293.419" rx="6.08824" ry="5.47795" fill="#614BC3"/>
<ellipse opacity="0.52" cx="360.324" cy="293.419" rx="6.08824" ry="5.47795" fill="#614BC3"/>
<ellipse opacity="0.6" cx="396.853" cy="293.419" rx="6.08823" ry="5.47795" fill="#614BC3"/>
<ellipse opacity="0.68" cx="433.383" cy="293.419" rx="6.08823" ry="5.47795" fill="#614BC3"/>
<ellipse opacity="0.76" cx="469.912" cy="293.419" rx="6.08824" ry="5.47795" fill="#614BC3"/>
<ellipse opacity="0.28" cx="287.265" cy="326.287" rx="6.08823" ry="5.47794" fill="#614BC3"/>
<ellipse opacity="0.36" cx="323.794" cy="326.287" rx="6.08824" ry="5.47794" fill="#614BC3"/>
<ellipse opacity="0.44" cx="360.324" cy="326.287" rx="6.08824" ry="5.47794" fill="#614BC3"/>
<ellipse opacity="0.52" cx="396.853" cy="326.287" rx="6.08823" ry="5.47794" fill="#614BC3"/>
<ellipse opacity="0.6" cx="433.383" cy="326.287" rx="6.08823" ry="5.47794" fill="#614BC3"/>
<ellipse opacity="0.68" cx="469.912" cy="326.287" rx="6.08824" ry="5.47794" fill="#614BC3"/>
<ellipse opacity="0.2" cx="287.265" cy="359.155" rx="6.08823" ry="5.47794" fill="#614BC3"/>
<ellipse opacity="0.28" cx="323.794" cy="359.155" rx="6.08824" ry="5.47794" fill="#614BC3"/>
<ellipse opacity="0.36" cx="360.324" cy="359.155" rx="6.08824" ry="5.47794" fill="#614BC3"/>
<ellipse opacity="0.44" cx="396.853" cy="359.155" rx="6.08823" ry="5.47794" fill="#614BC3"/>
<ellipse opacity="0.52" cx="433.383" cy="359.155" rx="6.08823" ry="5.47794" fill="#614BC3"/>
<ellipse opacity="0.6" cx="469.912" cy="359.155" rx="6.08824" ry="5.47794" fill="#614BC3"/>
<ellipse opacity="0.12" cx="287.265" cy="392.022" rx="6.08823" ry="5.47794" fill="#614BC3"/>
<ellipse opacity="0.2" cx="323.794" cy="392.022" rx="6.08824" ry="5.47794" fill="#614BC3"/>
<ellipse opacity="0.28" cx="360.324" cy="392.022" rx="6.08824" ry="5.47794" fill="#614BC3"/>
<ellipse opacity="0.36" cx="396.853" cy="392.022" rx="6.08823" ry="5.47794" fill="#614BC3"/>
<ellipse opacity="0.44" cx="433.383" cy="392.022" rx="6.08823" ry="5.47794" fill="#614BC3"/>
<ellipse opacity="0.52" cx="469.912" cy="392.022" rx="6.08824" ry="5.47794" fill="#614BC3"/>
</g>
<defs>
<filter id="filter0_d_1394_12211" x="0.470703" y="0" width="500.529" height="422.5" filterUnits="userSpaceOnUse" color-interpolation-filters="sRGB">
<feFlood flood-opacity="0" result="BackgroundImageFix"/>
<feColorMatrix in="SourceAlpha" type="matrix" values="0 0 0 0 0 0 0 0 0 0 0 0 0 0 0 0 0 0 127 0" result="hardAlpha"/>
<feOffset/>
<feGaussianBlur stdDeviation="12.5"/>
<feComposite in2="hardAlpha" operator="out"/>
<feColorMatrix type="matrix" values="0 0 0 0 0 0 0 0 0 0 0 0 0 0 0 0 0 0 0.25 0"/>
<feBlend mode="normal" in2="BackgroundImageFix" result="effect1_dropShadow_1394_12211"/>
<feBlend mode="normal" in="SourceGraphic" in2="effect1_dropShadow_1394_12211" result="shape"/>
</filter>
</defs>
</svg>
